<?xml version="1.0" standalone="no"?>
<!DOCTYPE svg PUBLIC "-//W3C//DTD SVG 20010904//EN"
 "http://www.w3.org/TR/2001/REC-SVG-20010904/DTD/svg10.dtd">
<svg version="1.0" xmlns="http://www.w3.org/2000/svg"
 width="697.000000pt" height="697.000000pt" viewBox="0 0 697.000000 697.000000"
 preserveAspectRatio="xMidYMid meet">
<metadata>
Created by potrace 1.11, written by Peter Selinger 2001-2013
</metadata>
<g transform="translate(0.000000,697.000000) scale(0.100000,-0.100000)"
fill="#000000" stroke="none">
<path d="M4450 6291 c-69 -43 -179 -111 -246 -152 -66 -41 -274 -168 -463
-284 l-343 -210 7 -57 c3 -31 8 -66 10 -79 3 -13 7 -41 10 -64 3 -22 12 -78
20 -125 8 -47 17 -103 20 -125 3 -22 8 -56 11 -75 3 -19 8 -44 9 -55 5 -30 34
-215 40 -260 4 -22 13 -78 20 -125 25 -147 31 -185 40 -260 4 -30 9 -58 11
-61 2 -4 6 -31 10 -60 18 -149 21 -97 20 341 -1 505 6 767 29 1004 2 27 6 50
7 51 2 1 145 64 318 140 173 76 338 148 365 160 265 119 288 127 324 121 57
-9 91 -16 166 -31 93 -18 123 -24 165 -31 19 -3 42 -7 50 -9 8 -2 31 -7 50
-10 19 -3 42 -8 50 -10 8 -2 29 -7 45 -9 33 -6 178 -33 348 -66 143 -27 315
-59 352 -66 17 -3 47 -9 68 -14 21 -4 37 -5 35 0 -2 4 -50 69 -108 143 l-105
135 -60 11 c-33 6 -71 13 -85 16 -14 3 -61 12 -105 20 -85 15 -173 31 -215 39
-14 3 -50 9 -80 15 -30 6 -68 13 -85 16 -16 2 -41 7 -55 10 -14 3 -52 10 -85
15 -33 6 -80 15 -105 20 -25 5 -56 12 -70 14 -23 4 -113 20 -165 30 -96 18
-93 19 -225 -63z"/>
<path d="M4562 5904 c-217 -39 -425 -148 -581 -303 -437 -433 -440 -1129 -7
-1565 210 -212 484 -325 786 -325 422 0 796 233 988 614 48 97 99 254 101 318
1 9 9 17 19 17 10 0 35 9 57 20 22 11 40 20 40 20 1 0 1 -371 1 -825 l-1 -826
-55 -30 c-68 -37 -104 -69 -91 -82 5 -5 40 -10 78 -11 l68 -1 0 -340 0 -340
-35 -1 c-57 -1 -190 35 -265 71 -191 92 -472 313 -809 638 -211 203 -278 257
-404 320 -170 85 -289 113 -460 104 -208 -10 -382 -88 -556 -248 -38 -35 -72
-64 -76 -64 -4 0 -36 26 -71 58 -155 140 -313 221 -494 252 -39 6 -212 8 -222
2 -5 -3 -26 -8 -48 -11 -108 -17 -277 -91 -402 -178 -40 -28 -126 -103 -191
-167 -251 -245 -416 -391 -590 -520 -260 -193 -396 -253 -577 -255 -88 0 -107
3 -157 26 -115 53 -192 170 -189 287 5 235 145 368 391 369 38 1 75 1 80 1 26
2 5 34 -43 66 -130 86 -271 103 -391 47 -141 -66 -244 -203 -282 -373 -3 -13
-8 -69 -11 -124 -17 -324 173 -577 550 -730 82 -34 227 -79 282 -88 89 -15
166 -27 210 -32 28 -4 60 -8 73 -10 81 -13 241 -20 467 -20 289 0 376 6 565
41 407 74 763 234 994 445 l56 51 48 -46 c137 -130 344 -250 582 -339 83 -31
295 -90 370 -103 244 -43 320 -49 620 -49 224 0 360 6 465 21 17 2 46 6 65 8
149 18 290 47 377 77 31 10 61 19 68 19 9 0 11 -159 11 -642 -1 -354 1 -653 3
-666 4 -27 44 -40 66 -22 13 11 15 103 15 690 l0 677 91 52 c50 28 116 70 146
94 115 86 223 246 254 377 21 88 16 270 -10 365 -58 211 -256 374 -437 360
l-44 -3 0 885 0 885 -24 26 c-91 98 -106 110 -139 116 -29 5 -36 12 -41 39 -3
17 -6 34 -6 37 1 17 -63 187 -93 247 -55 111 -113 190 -211 289 -143 143 -306
237 -501 290 -84 22 -124 27 -250 29 -94 2 -177 -2 -223 -11z m178 -186 c0 -9
3 -10 8 -2 9 15 132 6 132 -10 0 -8 3 -7 8 1 6 9 18 9 52 1 45 -11 63 -25 54
-40 -3 -4 0 -8 6 -8 7 0 10 7 6 15 -4 12 0 14 22 9 15 -4 32 -9 37 -13 6 -3
12 -6 15 -6 21 -3 50 -18 50 -26 0 -6 5 -7 10 -4 6 3 10 1 10 -6 0 -7 3 -9 7
-6 7 7 105 -44 135 -71 10 -8 15 -19 11 -25 -4 -6 -1 -7 6 -2 8 4 22 -1 35
-13 11 -12 36 -35 55 -51 19 -17 31 -31 27 -31 -3 0 11 -16 31 -35 20 -19 33
-35 28 -35 -6 0 -2 -5 8 -11 9 -5 17 -17 17 -24 0 -8 5 -15 10 -15 6 0 10 -9
10 -21 0 -11 5 -17 10 -14 6 3 10 -1 10 -10 0 -10 -5 -13 -12 -9 -8 4 -10 3
-5 -2 5 -5 14 -9 20 -9 7 0 12 -10 11 -22 0 -12 2 -22 5 -21 19 2 22 -4 11
-17 -7 -8 -16 -13 -19 -10 -4 2 -8 -2 -8 -9 0 -8 7 -12 15 -8 11 4 13 1 7 -8
-5 -8 -4 -11 3 -6 6 4 9 13 5 21 -3 8 -1 15 5 15 6 0 14 -15 17 -32 4 -18 11
-37 15 -43 4 -5 13 -32 19 -59 10 -40 10 -51 -1 -57 -10 -7 -9 -9 3 -9 18 0
17 6 24 -139 3 -62 2 -118 -2 -124 -4 -6 -8 -23 -9 -37 -2 -14 -5 -38 -9 -55
-3 -16 -6 -38 -6 -47 0 -10 -5 -18 -11 -18 -6 0 -9 -3 -6 -6 9 -8 -22 -95 -32
-89 -4 3 -6 -5 -2 -17 4 -15 2 -19 -7 -14 -8 5 -11 3 -9 -5 1 -8 -11 -38 -26
-67 -24 -43 -33 -51 -50 -47 -19 5 -19 5 -3 -5 17 -11 16 -13 -8 -41 -14 -17
-25 -36 -25 -42 0 -8 -4 -7 -12 1 -7 7 -17 12 -22 12 -6 0 -5 -4 3 -9 12 -7
10 -14 -8 -38 -13 -15 -26 -27 -29 -25 -4 1 -7 -2 -7 -8 0 -5 -11 -17 -25 -27
-14 -9 -38 -29 -54 -44 -17 -16 -36 -25 -44 -21 -11 4 -13 1 -7 -8 6 -10 4
-12 -9 -7 -9 4 -15 3 -11 -2 7 -12 -54 -43 -68 -34 -5 3 -7 1 -4 -5 8 -11
-129 -72 -172 -76 -14 -2 -34 -7 -44 -11 -9 -4 -26 -5 -37 -2 -13 3 -18 1 -13
-5 4 -8 -12 -9 -53 -5 -37 4 -53 3 -44 -3 11 -7 8 -8 -11 -6 -32 3 -51 15 -44
27 3 5 -2 6 -11 2 -13 -5 -15 -3 -9 8 5 8 4 11 0 6 -14 -13 -14 -36 0 -31 7 3
16 1 19 -4 3 -5 -6 -9 -19 -9 -14 0 -25 2 -25 6 0 3 -30 7 -67 8 -51 1 -71 6
-80 19 -7 10 -13 13 -13 7 0 -12 -85 6 -112 23 -13 9 -18 10 -39 13 -5 0 -7 6
-3 13 5 7 2 9 -8 5 -19 -7 -61 20 -53 34 4 5 1 9 -4 9 -6 0 -11 -5 -11 -11 0
-11 -41 11 -66 35 -6 6 -22 18 -35 26 -47 31 -139 124 -135 136 3 7 0 11 -7 8
-7 -2 -23 14 -37 36 -14 22 -27 40 -31 40 -5 0 -29 45 -29 56 0 3 4 3 8 0 4
-2 14 0 22 5 11 7 7 8 -13 5 -24 -4 -30 0 -44 32 -8 20 -22 49 -29 64 -13 24
-12 28 3 38 15 10 15 11 1 6 -22 -7 -30 4 -15 22 9 13 9 14 -1 8 -8 -5 -16 2
-22 19 -14 38 -12 48 8 41 14 -5 13 -3 -3 9 -11 9 -21 24 -22 33 -1 9 -5 32
-9 51 -6 28 -5 33 7 26 11 -7 12 -6 3 6 -31 39 -16 95 17 66 11 -10 11 -9 0 5
-7 10 -17 16 -21 13 -5 -3 -11 -1 -15 5 -3 5 2 11 12 11 17 1 17 2 0 6 -18 5
-18 5 0 20 10 8 12 12 6 8 -9 -4 -13 3 -13 24 0 17 5 31 10 31 6 0 10 5 10 11
0 5 -5 7 -11 3 -8 -4 -9 0 -4 15 8 25 17 71 18 88 0 7 5 9 10 6 6 -4 8 0 4 10
-11 29 57 192 76 180 6 -3 7 -1 3 5 -11 18 59 136 75 126 5 -3 9 3 9 14 0 20
42 65 53 57 4 -3 5 -2 2 2 -8 10 16 33 28 26 6 -3 7 -1 3 5 -7 11 50 59 65 54
5 -1 8 1 7 5 -2 5 0 8 3 8 4 0 16 11 28 25 14 18 21 21 21 10 1 -8 6 -4 11 10
8 19 12 22 19 10 5 -8 6 -18 3 -24 -3 -5 -1 -6 5 -3 5 4 8 17 5 30 -3 12 -3
19 2 15 4 -4 14 0 22 8 18 18 33 10 28 -16 -2 -11 1 -20 6 -20 6 0 9 6 6 13
-2 6 3 18 12 25 14 11 14 11 -1 6 -10 -3 -18 -1 -18 5 0 11 13 15 39 12 7 -2
10 2 6 8 -3 6 1 11 10 11 9 0 30 7 47 16 26 13 36 14 51 4 12 -7 17 -7 12 -1
-3 6 5 15 20 21 36 14 40 13 25 -5 -9 -11 -10 -19 -3 -26 8 -8 13 -7 18 2 6 8
4 10 -5 4 -8 -5 -11 -3 -8 6 3 8 17 21 32 29 24 13 28 13 36 0 6 -9 10 -10 10
-3 0 6 17 14 38 16 20 2 40 4 45 5 4 1 7 -4 7 -10z m1400 -2843 c105 -54 169
-171 171 -314 2 -131 -100 -264 -233 -302 l-28 -8 0 330 0 330 23 -7 c12 -3
42 -17 67 -29z"/>
<path d="M4621 5694 c0 -11 3 -14 6 -6 3 7 2 16 -1 19 -3 4 -6 -2 -5 -13z"/>
<path d="M4860 5699 c0 -5 -4 -8 -9 -4 -6 3 -15 -5 -21 -17 -10 -21 -10 -22 4
-5 8 10 18 18 22 17 5 -1 10 3 12 9 2 6 1 11 -2 11 -3 0 -6 -5 -6 -11z"/>
<path d="M4706 5686 c6 -15 4 -17 -6 -11 -9 6 -11 4 -5 -4 5 -9 10 -10 18 -2
8 8 7 14 -2 24 -10 10 -11 8 -5 -7z"/>
<path d="M4470 5670 c-11 -7 -11 -10 -2 -10 7 0 11 -4 7 -9 -3 -5 0 -13 7 -17
7 -4 10 -4 6 1 -4 4 0 14 10 22 16 12 16 13 -2 6 -13 -4 -17 -3 -12 5 9 14 6
15 -14 2z"/>
<path d="M4870 5670 c0 -5 5 -10 10 -10 6 0 10 5 10 10 0 6 -4 10 -10 10 -5 0
-10 -4 -10 -10z"/>
<path d="M4775 5660 c3 -4 14 -10 25 -13 11 -3 18 -2 15 3 -3 4 -14 10 -25 13
-11 3 -18 2 -15 -3z"/>
<path d="M4957 5659 c7 -7 15 -10 18 -7 3 3 -2 9 -12 12 -14 6 -15 5 -6 -5z"/>
<path d="M4896 5641 c-4 -5 3 -7 14 -4 23 6 26 13 6 13 -8 0 -17 -4 -20 -9z"/>
<path d="M5035 5641 c3 -5 0 -11 -7 -13 -7 -3 -5 -7 6 -11 9 -4 15 -3 11 2 -3
5 0 11 7 13 7 3 5 7 -6 11 -9 4 -15 3 -11 -2z"/>
<path d="M5070 5646 c0 -2 9 -6 20 -9 11 -3 18 -1 14 4 -5 9 -34 13 -34 5z"/>
<path d="M4435 5630 c6 -10 4 -12 -7 -7 -12 4 -14 1 -11 -14 3 -11 6 -18 7
-17 1 2 7 10 14 20 10 12 10 18 1 24 -8 5 -9 3 -4 -6z"/>
<path d="M4630 5630 c0 -5 5 -10 10 -10 6 0 10 5 10 10 0 6 -4 10 -10 10 -5 0
-10 -4 -10 -10z"/>
<path d="M4948 5622 c4 -11 1 -13 -8 -7 -8 5 -11 4 -7 -3 8 -12 32 -10 44 3 5
4 2 5 -6 0 -10 -6 -13 -4 -9 7 4 8 1 15 -7 15 -8 0 -11 -7 -7 -15z"/>
<path d="M4490 5608 c0 -6 3 -8 7 -5 3 4 13 1 22 -6 14 -11 14 -10 2 6 -15 20
-31 22 -31 5z"/>
<path d="M4588 5602 c-3 -11 0 -19 7 -19 7 0 10 8 7 19 -2 10 -6 18 -7 18 -1
0 -5 -8 -7 -18z"/>
<path d="M4686 5608 c3 -4 9 -8 15 -8 5 0 9 4 9 8 0 5 -7 9 -15 9 -8 0 -12 -4
-9 -9z"/>
<path d="M4759 5603 c-12 -16 -12 -17 2 -6 9 7 19 10 22 6 4 -3 7 -1 7 5 0 17
-16 15 -31 -5z"/>
<path d="M5105 5609 c-4 -6 -5 -12 -2 -15 2 -3 7 2 10 11 7 17 1 20 -8 4z"/>
<path d="M4644 5600 c-12 -5 -24 -16 -28 -25 -3 -9 -11 -13 -16 -10 -6 4 -10
3 -9 -2 3 -19 -2 -33 -12 -33 -6 0 -8 7 -4 18 5 13 4 14 -6 5 -10 -10 -9 -16
2 -29 12 -16 12 -17 -3 -11 -10 3 -18 2 -18 -3 0 -6 5 -10 10 -10 6 0 5 -11
-3 -27 -8 -16 -17 -40 -21 -55 -3 -14 -14 -29 -24 -31 -15 -4 -15 -5 2 -6 15
-1 16 -4 6 -16 -7 -8 -10 -15 -7 -15 4 0 0 -19 -8 -41 -8 -23 -15 -52 -15 -66
0 -17 -4 -22 -12 -17 -10 6 -10 5 -1 -8 7 -8 10 -18 7 -21 -7 -7 -11 -32 -13
-90 -1 -28 -4 -36 -13 -31 -10 6 -10 4 0 -8 14 -17 13 -39 -2 -50 -6 -4 -5
-17 2 -32 6 -14 8 -26 4 -26 -4 0 -7 -30 -7 -67 0 -51 -3 -67 -13 -65 -8 1
-11 -2 -7 -8 3 -6 11 -8 16 -5 5 4 9 1 9 -4 0 -6 -8 -11 -17 -11 -15 0 -15 -2
-4 -9 8 -5 11 -16 8 -24 -8 -22 -72 -68 -96 -70 -12 -1 -21 -5 -21 -9 0 -13
-40 -9 -40 5 0 7 -4 6 -10 -4 -9 -15 -17 -16 -96 -11 -14 1 -23 6 -20 11 3 5
-5 9 -18 9 -26 0 -89 50 -80 64 3 5 0 7 -8 6 -7 -2 -12 3 -11 10 2 6 -2 12 -7
12 -16 0 -31 49 -36 115 -4 70 17 152 50 187 11 12 20 25 19 28 -2 9 54 70 65
70 6 0 12 5 14 12 4 10 13 10 40 1 33 -10 37 -9 49 13 7 13 16 24 21 24 4 0 8
5 8 11 0 5 -4 7 -10 4 -5 -3 -10 -2 -10 2 0 15 -79 11 -85 -4 -2 -8 -9 -12
-14 -9 -5 3 -12 -1 -15 -10 -4 -9 -13 -14 -22 -10 -8 3 -13 2 -9 -3 3 -5 -7
-24 -22 -43 -43 -52 -50 -58 -58 -50 -5 4 -6 3 -3 -3 10 -17 -11 -55 -29 -55
-14 0 -15 -2 -4 -9 10 -6 11 -13 2 -29 -6 -11 -11 -30 -11 -41 0 -12 -4 -21
-10 -21 -5 0 -7 8 -3 18 7 18 5 17 -17 -11 -11 -16 -11 -18 1 -15 10 2 14 -9
15 -43 0 -25 3 -50 6 -55 3 -5 4 -19 3 -31 -1 -12 2 -20 7 -17 4 3 8 -3 8 -13
0 -11 5 -24 12 -31 8 -8 8 -15 -1 -26 -9 -11 -9 -16 0 -22 7 -4 9 -3 5 4 -3 6
-2 13 2 16 10 6 62 -48 62 -64 0 -5 3 -10 8 -9 15 2 52 -14 52 -22 0 -5 3 -8
8 -7 4 1 23 -2 42 -7 19 -5 49 -9 65 -9 22 -1 30 -6 29 -18 -1 -10 3 -15 8
-12 5 3 7 12 4 20 -7 19 34 36 52 21 9 -7 11 -6 7 5 -7 18 61 54 69 35 2 -7 5
-4 5 6 1 9 5 17 10 17 13 0 2 -173 -12 -182 -7 -4 -7 -8 -2 -8 13 0 7 -108
-11 -172 -1 -5 -2 -10 -3 -13 0 -3 -10 3 -20 12 -11 9 -17 21 -14 26 4 6 1 7
-6 2 -8 -4 -21 1 -32 14 -11 12 -29 21 -39 21 -11 0 -20 5 -20 10 0 6 -8 2
-18 -7 -18 -18 -28 -98 -10 -87 4 3 8 -1 8 -8 1 -7 11 -26 24 -42 14 -16 22
-36 19 -45 -3 -10 -2 -12 4 -6 9 12 23 13 41 2 7 -5 22 -5 33 -2 16 5 19 4 14
-5 -5 -9 -4 -11 4 -6 6 4 9 11 6 16 -3 5 2 13 12 18 14 8 25 1 58 -33 22 -24
47 -52 55 -62 8 -10 40 -39 70 -63 30 -25 58 -49 62 -55 4 -5 8 -6 8 -1 0 5 8
2 17 -5 14 -12 16 -12 9 0 -6 9 -5 12 5 9 15 -5 59 37 86 83 10 16 24 29 33
30 10 0 11 2 2 6 -6 2 -10 8 -7 13 3 4 -5 6 -17 2 -18 -4 -20 -2 -15 19 5 21
5 22 -7 7 -7 -10 -17 -14 -21 -10 -4 4 -5 0 -3 -8 7 -21 -10 -52 -24 -44 -6 4
-8 3 -4 -4 8 -13 -20 -42 -40 -42 -29 0 -96 41 -90 55 3 9 0 12 -10 8 -17 -6
-76 45 -68 59 3 5 2 8 -3 7 -20 -4 -27 2 -13 12 13 9 12 10 -3 5 -12 -4 -21 2
-29 19 -6 14 -15 25 -20 25 -4 0 -8 5 -8 11 0 5 4 8 8 5 5 -3 9 1 9 9 0 8 -4
12 -9 9 -5 -3 -7 21 -6 54 1 33 6 59 9 56 4 -2 10 3 13 12 3 8 2 12 -3 9 -5
-3 -12 -1 -16 4 -3 5 3 14 12 20 10 6 12 11 6 11 -14 0 -13 26 1 49 6 9 5 12
0 8 -5 -3 -10 3 -10 14 0 10 7 19 16 20 10 0 11 2 3 6 -16 6 -17 30 -1 39 8 5
9 2 4 -11 -7 -18 -6 -18 16 0 13 11 25 22 28 24 3 2 -5 0 -18 -3 -30 -10 -37
11 -21 65 7 24 12 47 11 52 -1 4 3 7 9 7 5 0 7 5 4 10 -3 6 -1 10 4 10 6 0 10
3 9 8 -4 14 13 52 23 52 6 0 8 4 4 9 -3 5 -1 12 5 16 5 3 10 14 10 24 0 9 8
26 18 37 10 10 19 24 21 29 2 6 7 9 13 7 5 -1 7 2 3 8 -8 13 4 52 15 45 4 -3
6 5 2 17 -3 14 -1 19 6 14 8 -4 10 -2 6 7 -3 8 1 21 8 28 7 8 14 21 16 29 6
31 25 70 32 65 4 -2 5 6 3 19 -3 13 0 27 6 30 6 4 11 17 11 29 0 13 8 33 17
46 10 15 11 21 3 16 -8 -5 -11 -4 -6 3 6 10 12 48 20 125 2 21 -1 40 -6 43 -4
3 -6 10 -2 15 3 5 10 6 16 3 7 -4 8 -2 4 5 -4 6 -12 9 -17 6 -5 -4 -9 3 -9 15
0 28 -26 77 -48 89 -9 5 -26 5 -38 1z m51 -75 c13 -32 14 -164 1 -220 -9 -39
-27 -97 -35 -110 -3 -5 -7 -19 -8 -30 -2 -10 -7 -22 -11 -25 -4 -3 -8 -15 -10
-28 -2 -13 -14 -44 -27 -70 -23 -47 -46 -102 -46 -112 0 -3 -7 -9 -15 -13 -8
-5 -12 -12 -9 -18 4 -5 1 -9 -5 -9 -6 0 -9 -4 -6 -9 9 -13 -3 -39 -21 -45 -13
-5 -14 -4 -3 9 10 12 10 15 -1 16 -8 0 -9 2 -4 5 6 2 9 24 8 49 -2 43 0 46 20
41 12 -3 16 -3 9 0 -6 3 -9 11 -6 16 4 7 2 8 -4 4 -8 -5 -12 3 -12 24 0 22 4
29 13 24 9 -6 9 -5 0 7 -11 14 -9 65 4 119 3 14 5 36 4 49 -2 13 1 21 6 18 4
-3 8 17 8 44 0 33 5 53 15 59 8 5 10 10 4 10 -7 0 -9 11 -6 25 2 14 9 25 14
25 5 0 7 4 4 8 -9 14 16 92 27 85 6 -3 7 -1 3 6 -4 6 2 26 13 45 27 43 58 43
76 1z m-346 -1196 c40 -30 52 -62 23 -65 -6 -1 -14 -3 -17 -4 -28 -14 -61 2
-81 41 -32 63 7 78 75 28z"/>
<path d="M4636 5525 c-3 -8 -1 -15 4 -15 6 0 10 7 10 15 0 8 -2 15 -4 15 -2 0
-6 -7 -10 -15z"/>
<path d="M4676 5503 c-6 -14 -5 -15 5 -6 7 7 10 15 7 18 -3 3 -9 -2 -12 -12z"/>
<path d="M4636 5485 c-11 -8 -15 -15 -9 -15 6 0 16 7 23 15 16 19 11 19 -14 0z"/>
<path d="M4672 5449 c12 -36 21 -38 12 -3 -6 21 -4 25 7 19 8 -5 10 -4 6 0 -4
5 -14 10 -21 11 -11 2 -12 -4 -4 -27z"/>
<path d="M4600 5445 c-7 -8 -9 -15 -5 -15 4 0 1 -8 -6 -17 -13 -16 -12 -17 3
-4 10 7 15 17 13 22 -3 4 3 12 12 18 10 6 13 11 7 11 -6 0 -17 -7 -24 -15z"/>
<path d="M4650 5421 c-8 -6 -17 -8 -21 -5 -4 2 -11 -1 -15 -7 -5 -8 -3 -9 6
-4 10 6 12 4 7 -8 -4 -11 -2 -14 9 -10 8 3 12 8 10 11 -3 3 2 11 12 18 19 15
14 18 -8 5z"/>
<path d="M4674 5379 c-3 -6 -1 -16 6 -22 10 -9 11 -9 5 2 -4 8 -2 17 6 22 9 6
10 9 2 9 -6 0 -15 -5 -19 -11z"/>
<path d="M4580 5370 c-8 -5 -10 -10 -5 -10 6 0 17 5 25 10 8 5 11 10 5 10 -5
0 -17 -5 -25 -10z"/>
<path d="M4603 5352 c-7 -4 -9 -13 -4 -21 6 -9 10 -7 14 8 3 12 4 21 4 21 -1
0 -7 -4 -14 -8z"/>
<path d="M4639 5323 c-1 -5 -1 -12 0 -17 1 -5 -6 -5 -16 -2 -14 6 -15 4 -6 -5
13 -13 36 -2 27 13 -5 8 -1 9 10 5 10 -4 15 -3 11 3 -7 12 -24 13 -26 3z"/>
<path d="M4575 5289 c-4 -6 -4 -13 -1 -16 3 -4 6 -1 6 6 0 7 5 9 12 5 7 -4 8
-3 4 4 -9 15 -13 15 -21 1z"/>
<path d="M4667 5281 c-4 -17 -3 -21 5 -13 5 5 8 16 6 23 -3 8 -7 3 -11 -10z"/>
<path d="M4620 5255 c0 -2 6 -8 13 -14 10 -8 14 -7 14 2 0 8 -6 14 -14 14 -7
0 -13 -1 -13 -2z"/>
<path d="M4605 5229 c-4 -6 -4 -13 -1 -16 3 -4 6 -1 6 6 0 7 5 9 12 5 7 -4 8
-3 4 4 -9 15 -13 15 -21 1z"/>
<path d="M4640 5210 c-9 -6 -10 -10 -3 -10 6 0 15 5 18 10 8 12 4 12 -15 0z"/>
<path d="M4555 5180 c-3 -6 1 -7 9 -4 18 7 21 14 7 14 -6 0 -13 -4 -16 -10z"/>
<path d="M4606 5181 c-17 -6 -17 -8 -4 -14 10 -3 19 0 22 9 3 8 4 14 3 13 -1
0 -11 -4 -21 -8z"/>
<path d="M4530 5130 c0 -5 5 -10 10 -10 6 0 10 5 10 10 0 6 -4 10 -10 10 -5 0
-10 -4 -10 -10z"/>
<path d="M4595 5120 c-3 -6 1 -7 9 -4 18 7 21 14 7 14 -6 0 -13 -4 -16 -10z"/>
<path d="M4555 5090 c-3 -5 -1 -10 4 -10 6 0 11 5 11 10 0 6 -2 10 -4 10 -3 0
-8 -4 -11 -10z"/>
<path d="M4605 5090 c-3 -5 -1 -10 4 -10 6 0 11 5 11 10 0 6 -2 10 -4 10 -3 0
-8 -4 -11 -10z"/>
<path d="M4574 5069 c-4 -7 -3 -9 4 -5 5 3 13 0 15 -6 4 -9 6 -10 6 -1 1 17
-16 25 -25 12z"/>
<path d="M4570 5030 c-9 -6 -10 -10 -3 -10 6 0 15 5 18 10 8 12 4 12 -15 0z"/>
<path d="M4534 5008 c-5 -7 -3 -8 6 -3 10 6 12 4 7 -8 -4 -11 -2 -14 9 -10 11
4 12 9 3 19 -14 17 -16 17 -25 2z"/>
<path d="M4516 4925 c-9 -26 -7 -32 5 -12 6 10 9 21 6 23 -2 3 -7 -2 -11 -11z"/>
<path d="M4290 4329 c0 -4 11 -6 24 -5 13 0 22 4 20 8 -6 9 -44 6 -44 -3z"/>
<path d="M4356 4297 c3 -10 9 -15 12 -12 3 3 0 11 -7 18 -10 9 -11 8 -5 -6z"/>
<path d="M4808 5603 c6 -2 9 -10 6 -15 -4 -7 -2 -8 5 -4 13 9 5 26 -12 25 -9
0 -8 -2 1 -6z"/>
<path d="M5160 5601 c0 -6 4 -13 10 -16 6 -3 7 1 4 9 -7 18 -14 21 -14 7z"/>
<path d="M4470 5590 c0 -5 5 -10 11 -10 5 0 7 5 4 10 -3 6 -8 10 -11 10 -2 0
-4 -4 -4 -10z"/>
<path d="M4987 5579 c6 -23 9 -24 16 -5 3 8 0 17 -7 19 -10 4 -12 -1 -9 -14z"/>
<path d="M4885 5580 c-16 -7 -17 -9 -3 -9 9 -1 20 4 23 9 7 11 7 11 -20 0z"/>
<path d="M4321 5566 c-9 -10 -8 -15 3 -19 9 -4 18 -1 22 5 5 7 2 8 -6 3 -10
-6 -12 -4 -7 8 8 21 3 22 -12 3z"/>
<path d="M4414 5568 c-5 -7 -3 -8 6 -3 10 6 12 4 7 -8 -4 -11 -2 -14 9 -10 11
4 12 9 3 19 -14 17 -16 17 -25 2z"/>
<path d="M4927 5569 c7 -7 15 -10 18 -7 3 3 -2 9 -12 12 -14 6 -15 5 -6 -5z"/>
<path d="M5040 5570 c-12 -7 -10 -9 8 -7 12 0 22 5 22 9 0 11 -12 10 -30 -2z"/>
<path d="M4488 5563 c6 -2 9 -10 6 -15 -4 -7 -2 -8 5 -4 13 9 5 26 -12 25 -9
0 -8 -2 1 -6z"/>
<path d="M4516 5545 c-9 -26 -7 -32 5 -12 6 10 9 21 6 23 -2 3 -7 -2 -11 -11z"/>
<path d="M4750 5553 c0 -5 5 -15 10 -23 7 -12 9 -10 7 8 -1 19 -17 33 -17 15z"/>
<path d="M4953 5552 c-9 -6 -7 -11 7 -19 14 -10 19 -9 24 2 3 10 0 12 -11 8
-11 -4 -14 -2 -9 5 8 14 6 15 -11 4z"/>
<path d="M5096 5548 c5 -7 2 -9 -8 -6 -8 4 -15 0 -15 -7 0 -10 5 -11 19 -4 16
9 17 29 2 29 -3 0 -2 -5 2 -12z"/>
<path d="M5270 5555 c0 -5 5 -17 10 -25 5 -8 10 -10 10 -5 0 6 -5 17 -10 25
-5 8 -10 11 -10 5z"/>
<path d="M4260 5543 c0 -7 5 -15 10 -18 6 -4 8 -11 5 -16 -4 -5 -1 -9 4 -9 15
0 13 11 -4 34 -8 11 -15 15 -15 9z"/>
<path d="M4359 5548 c-5 -18 -6 -38 -1 -34 7 8 12 36 6 36 -2 0 -4 -1 -5 -2z"/>
<path d="M4396 5535 c10 -8 23 -15 28 -15 6 0 1 7 -10 15 -10 8 -23 15 -28 15
-6 0 -1 -7 10 -15z"/>
<path d="M4915 5540 c-3 -5 -3 -10 2 -10 4 0 1 -5 -7 -11 -12 -8 -12 -10 -1
-7 8 2 15 12 17 21 3 19 -2 22 -11 7z"/>
<path d="M5191 5534 c0 -11 3 -14 6 -6 3 7 2 16 -1 19 -3 4 -6 -2 -5 -13z"/>
<path d="M5242 5530 c-15 -25 -15 -30 0 -30 6 0 8 3 5 7 -4 3 -2 12 5 20 6 7
9 15 7 18 -3 2 -10 -5 -17 -15z"/>
<path d="M5000 5525 c-7 -9 -11 -17 -9 -20 3 -2 10 5 17 15 14 24 10 26 -8 5z"/>
<path d="M5122 5528 c-15 -15 -15 -28 0 -28 6 0 8 3 5 7 -4 3 -2 12 4 20 14
16 7 17 -9 1z"/>
<path d="M5015 5511 c-9 -15 15 -25 28 -12 9 9 7 10 -7 5 -13 -5 -17 -4 -12 4
4 7 5 12 2 12 -3 0 -7 -4 -11 -9z"/>
<path d="M4198 5503 c7 -3 16 -2 19 1 4 3 -2 6 -13 5 -11 0 -14 -3 -6 -6z"/>
<path d="M5150 5500 c-8 -5 -12 -12 -9 -15 4 -3 12 1 19 10 14 17 11 19 -10 5z"/>
<path d="M5315 5500 c3 -5 8 -10 11 -10 2 0 4 5 4 10 0 6 -5 10 -11 10 -5 0
-7 -4 -4 -10z"/>
<path d="M4159 5483 c-13 -16 -12 -17 4 -4 16 13 21 21 13 21 -2 0 -10 -8 -17
-17z"/>
<path d="M4242 5491 c-10 -6 -10 -10 3 -21 13 -11 14 -10 9 5 -6 14 -4 16 6
10 9 -5 11 -4 6 3 -8 14 -7 14 -24 3z"/>
<path d="M5254 5488 c-5 -7 -2 -8 6 -3 9 6 12 4 8 -7 -4 -8 -1 -15 6 -15 17 0
16 25 0 31 -8 3 -16 0 -20 -6z"/>
<path d="M4376 5481 c-4 -5 3 -7 14 -4 23 6 26 13 6 13 -8 0 -17 -4 -20 -9z"/>
<path d="M4936 5481 c-4 -5 3 -7 14 -4 23 6 26 13 6 13 -8 0 -17 -4 -20 -9z"/>
<path d="M5192 5481 c-11 -6 -9 -9 6 -13 15 -4 19 -2 15 8 -6 16 -4 16 -21 5z"/>
<path d="M4195 5470 c6 -10 4 -12 -11 -6 -15 6 -17 5 -6 -5 9 -9 15 -10 23 -2
8 8 7 13 -2 18 -8 6 -10 4 -4 -5z"/>
<path d="M4455 5470 c-3 -6 2 -13 12 -17 10 -3 21 -8 25 -10 4 -2 10 2 14 8 5
8 3 9 -6 4 -10 -6 -12 -4 -6 11 6 15 5 17 -5 7 -15 -15 -33 -17 -24 -3 3 6 4
10 1 10 -3 0 -8 -5 -11 -10z"/>
<path d="M4763 5465 c-3 -9 -3 -18 -1 -21 3 -3 8 4 11 16 6 23 -1 27 -10 5z"/>
<path d="M4859 5478 c-8 -27 -5 -36 9 -30 10 4 12 7 4 10 -7 2 -10 8 -6 13 3
5 3 9 0 9 -3 0 -6 -1 -7 -2z"/>
<path d="M5037 5463 c3 -7 6 -13 8 -13 2 0 5 6 8 13 3 8 -1 14 -8 14 -7 0 -11
-6 -8 -14z"/>
<path d="M4279 5468 c-5 -18 -6 -38 -1 -34 7 8 12 36 6 36 -2 0 -4 -1 -5 -2z"/>
<path d="M4917 5450 c3 -11 9 -22 13 -25 5 -3 6 4 3 15 -3 11 -9 22 -13 25 -5
3 -6 -4 -3 -15z"/>
<path d="M4958 5463 c7 -3 16 -2 19 1 4 3 -2 6 -13 5 -11 0 -14 -3 -6 -6z"/>
<path d="M4999 5458 c15 -21 31 -23 31 -6 0 6 -3 8 -7 5 -3 -4 -13 -1 -22 6
-14 11 -14 10 -2 -5z"/>
<path d="M5380 5461 c0 -7 -5 -9 -12 -5 -7 5 -8 3 -3 -5 5 -9 10 -10 18 -2 6
6 8 14 4 18 -4 3 -7 1 -7 -6z"/>
<path d="M4146 5452 c-3 -5 1 -9 9 -9 8 0 12 4 9 9 -3 4 -7 8 -9 8 -2 0 -6 -4
-9 -8z"/>
<path d="M4315 5428 c-11 -24 -12 -28 -2 -16 8 10 17 15 21 11 4 -4 4 1 0 11
-6 15 -4 17 6 11 9 -5 11 -4 6 3 -11 17 -14 15 -31 -20z"/>
<path d="M4815 5449 c-6 -8 -4 -10 5 -4 10 6 12 4 6 -11 -6 -15 -5 -17 5 -6 9
9 10 15 2 23 -8 8 -13 7 -18 -2z"/>
<path d="M5105 5450 c-3 -6 1 -7 9 -4 18 7 21 14 7 14 -6 0 -13 -4 -16 -10z"/>
<path d="M5225 5450 c-3 -6 1 -7 9 -4 18 7 21 14 7 14 -6 0 -13 -4 -16 -10z"/>
<path d="M5135 5440 c-3 -6 1 -7 9 -4 18 7 21 14 7 14 -6 0 -13 -4 -16 -10z"/>
<path d="M5315 5441 c-3 -5 0 -13 6 -17 8 -5 9 -3 4 6 -6 10 -4 12 9 7 10 -4
15 -3 11 3 -8 13 -22 13 -30 1z"/>
<path d="M4116 5423 c-6 -14 -5 -15 5 -6 7 7 10 15 7 18 -3 3 -9 -2 -12 -12z"/>
<path d="M4235 5431 c-3 -5 0 -13 6 -17 7 -4 9 -3 5 4 -3 5 0 13 6 15 9 4 10
6 1 6 -6 1 -14 -3 -18 -8z"/>
<path d="M4873 5433 c4 -3 1 -13 -6 -22 -11 -14 -10 -14 6 -2 20 15 22 31 5
31 -6 0 -8 -3 -5 -7z"/>
<path d="M5076 5423 c-6 -14 -5 -15 5 -6 7 7 10 15 7 18 -3 3 -9 -2 -12 -12z"/>
<path d="M5242 5431 c-10 -6 -10 -10 2 -20 11 -9 16 -9 22 0 5 8 3 9 -6 4 -10
-6 -12 -4 -7 8 7 19 7 20 -11 8z"/>
<path d="M4140 5421 c0 -6 4 -13 10 -16 6 -3 7 1 4 9 -7 18 -14 21 -14 7z"/>
<path d="M4365 5420 c-16 -7 -17 -9 -3 -9 9 -1 20 4 23 9 7 11 7 11 -20 0z"/>
<path d="M4402 5410 c-15 -25 -15 -30 0 -30 6 0 8 3 5 7 -4 3 -2 12 5 20 6 7
9 15 7 18 -3 2 -10 -5 -17 -15z"/>
<path d="M5104 5418 c3 -15 26 -23 26 -8 0 6 -4 9 -9 6 -5 -4 -12 -1 -14 4 -3
6 -4 5 -3 -2z"/>
<path d="M4080 5405 c-7 -9 -11 -17 -9 -20 3 -2 10 5 17 15 14 24 10 26 -8 5z"/>
<path d="M4177 5406 c-4 -10 1 -12 14 -9 23 6 24 9 5 16 -8 3 -17 0 -19 -7z"/>
<path d="M4500 5410 c-8 -5 -10 -10 -5 -10 6 0 17 5 25 10 8 5 11 10 5 10 -5
0 -17 -5 -25 -10z"/>
<path d="M4790 5416 c0 -2 7 -7 16 -10 8 -3 12 -2 9 4 -6 10 -25 14 -25 6z"/>
<path d="M5040 5410 c-9 -6 -10 -10 -3 -10 6 0 15 5 18 10 8 12 4 12 -15 0z"/>
<path d="M5170 5408 c0 -6 3 -8 7 -5 3 4 13 1 22 -6 14 -11 14 -10 2 6 -15 20
-31 22 -31 5z"/>
<path d="M5286 5408 c3 -4 9 -8 15 -8 5 0 9 4 9 8 0 5 -7 9 -15 9 -8 0 -12 -4
-9 -9z"/>
<path d="M4836 5397 c3 -10 9 -15 12 -12 3 3 0 11 -7 18 -10 9 -11 8 -5 -6z"/>
<path d="M4109 5379 c5 -15 7 -30 4 -33 -4 -3 -1 -6 6 -6 13 0 6 37 -11 55 -5
6 -5 -1 1 -16z"/>
<path d="M4226 5387 c3 -10 9 -15 12 -12 3 3 0 11 -7 18 -10 9 -11 8 -5 -6z"/>
<path d="M4274 5375 c1 -14 6 -28 11 -33 4 -4 4 -1 0 7 -6 11 -4 13 10 7 18
-6 18 -6 2 12 -9 10 -14 22 -10 25 3 4 1 7 -5 7 -6 0 -9 -11 -8 -25z"/>
<path d="M4443 5383 c-3 -10 -8 -22 -11 -27 -3 -5 0 -6 5 -3 11 7 25 47 17 47
-3 0 -7 -8 -11 -17z"/>
<path d="M5068 5385 c6 -11 11 -24 12 -30 1 -5 4 -12 7 -15 4 -3 2 1 -2 9 -6
11 -4 13 8 8 11 -4 14 -2 10 9 -3 8 -8 12 -11 10 -3 -3 -11 2 -19 12 -13 16
-13 15 -5 -3z"/>
<path d="M5155 5390 c6 -10 4 -12 -11 -6 -15 6 -17 5 -6 -5 9 -9 15 -10 23 -2
8 8 7 13 -2 18 -8 6 -10 4 -4 -5z"/>
<path d="M5407 5393 c-9 -9 -9 -41 1 -46 4 -3 7 8 7 24 0 16 0 29 -1 29 0 0
-4 -3 -7 -7z"/>
<path d="M4156 5377 c3 -10 9 -15 12 -12 3 3 0 11 -7 18 -10 9 -11 8 -5 -6z"/>
<path d="M4860 5381 c0 -6 4 -13 10 -16 6 -3 7 1 4 9 -7 18 -14 21 -14 7z"/>
<path d="M4956 5375 c3 -8 10 -13 14 -10 5 3 11 -1 13 -7 4 -10 6 -10 6 -1 1
7 -8 17 -19 23 -16 9 -18 8 -14 -5z"/>
<path d="M5001 5373 c7 -12 15 -20 18 -17 3 2 -3 12 -13 22 -17 16 -18 16 -5
-5z"/>
<path d="M5242 5370 c-15 -25 -15 -30 0 -30 6 0 8 3 5 7 -4 3 -2 12 5 20 6 7
9 15 7 18 -3 2 -10 -5 -17 -15z"/>
<path d="M4891 5364 c0 -11 3 -14 6 -6 3 7 2 16 -1 19 -3 4 -6 -2 -5 -13z"/>
<path d="M5190 5360 c-6 -11 -8 -20 -6 -20 3 0 10 9 16 20 6 11 8 20 6 20 -3
0 -10 -9 -16 -20z"/>
<path d="M5447 5369 c7 -7 15 -10 18 -7 3 3 -2 9 -12 12 -14 6 -15 5 -6 -5z"/>
<path d="M4792 5361 c-11 -6 -9 -9 6 -13 15 -4 19 -2 15 8 -6 16 -4 16 -21 5z"/>
<path d="M4230 5355 c0 -13 20 -35 32 -35 4 0 8 5 8 11 0 5 -4 8 -9 4 -6 -3
-14 3 -20 12 -6 10 -11 13 -11 8z"/>
<path d="M4478 5353 c7 -3 16 -2 19 1 4 3 -2 6 -13 5 -11 0 -14 -3 -6 -6z"/>
<path d="M5350 5353 c1 -13 30 -48 30 -36 0 7 -5 15 -10 18 -6 4 -8 11 -5 16
4 5 1 9 -4 9 -6 0 -11 -3 -11 -7z"/>
<path d="M4458 5338 c5 -5 16 -8 23 -6 8 3 3 7 -10 11 -17 4 -21 3 -13 -5z"/>
<path d="M4845 5340 c-16 -7 -17 -9 -3 -9 9 -1 20 4 23 9 7 11 7 11 -20 0z"/>
<path d="M5039 5338 c15 -21 31 -23 31 -6 0 6 -3 8 -7 5 -3 -4 -13 -1 -22 6
-14 11 -14 10 -2 -5z"/>
<path d="M5137 5334 c2 -7 11 -10 19 -7 19 7 18 10 -5 16 -13 3 -18 1 -14 -9z"/>
<path d="M4017 5326 c-4 -10 1 -12 14 -9 23 6 24 9 5 16 -8 3 -17 0 -19 -7z"/>
<path d="M4084 5325 c-4 -8 -11 -12 -16 -9 -6 4 -5 -3 2 -15 9 -18 30 -21 30
-5 0 3 -4 2 -10 -1 -13 -8 -13 1 0 26 6 10 8 19 5 19 -3 0 -8 -7 -11 -15z"/>
<path d="M4187 5321 c-3 -13 -1 -18 9 -14 7 2 10 11 7 19 -7 19 -10 18 -16 -5z"/>
<path d="M4310 5335 c0 -5 5 -17 10 -25 5 -8 10 -10 10 -5 0 6 -5 17 -10 25
-5 8 -10 11 -10 5z"/>
<path d="M4880 5325 c-7 -9 -11 -17 -9 -20 3 -2 10 5 17 15 14 24 10 26 -8 5z"/>
<path d="M4930 5332 c0 -5 7 -9 15 -9 8 0 12 4 9 9 -3 4 -9 8 -15 8 -5 0 -9
-4 -9 -8z"/>
<path d="M4987 5323 c5 -12 3 -14 -7 -8 -8 5 -11 4 -6 -3 4 -6 13 -9 22 -5 11
4 12 9 3 19 -15 19 -20 18 -12 -3z"/>
<path d="M5110 5331 c0 -6 4 -13 10 -16 6 -3 7 1 4 9 -7 18 -14 21 -14 7z"/>
<path d="M5269 5323 c6 -12 11 -24 11 -26 0 -7 -23 -3 -40 8 -12 7 -13 6 -3
-7 14 -16 57 -18 70 -4 5 5 2 6 -6 1 -11 -6 -13 -4 -7 11 4 10 4 15 0 11 -4
-4 -13 1 -21 11 -13 15 -13 15 -4 -5z"/>
<path d="M5426 5332 c-3 -5 1 -9 9 -9 8 0 12 4 9 9 -3 4 -7 8 -9 8 -2 0 -6 -4
-9 -8z"/>
<path d="M4753 5315 c0 -8 4 -15 9 -15 4 0 8 4 8 9 0 6 -4 12 -8 15 -5 3 -9
-1 -9 -9z"/>
<path d="M5195 5321 c-6 -11 13 -26 22 -17 4 3 1 6 -6 6 -7 0 -9 5 -6 10 3 6
4 10 1 10 -3 0 -7 -4 -11 -9z"/>
<path d="M5310 5326 c0 -2 9 -6 20 -9 11 -3 18 -1 14 4 -5 9 -34 13 -34 5z"/>
<path d="M4915 5310 c6 -10 4 -12 -9 -7 -9 4 -15 3 -11 -2 3 -5 0 -11 -7 -13
-7 -3 -4 -7 7 -12 11 -4 16 -4 12 0 -4 4 1 12 10 19 13 9 13 14 3 20 -9 6 -11
4 -5 -5z"/>
<path d="M5075 5311 c-9 -15 15 -25 28 -12 9 9 7 10 -7 5 -13 -5 -17 -4 -12 4
4 7 5 12 2 12 -3 0 -7 -4 -11 -9z"/>
<path d="M4150 5303 c5 -2 8 -9 4 -14 -3 -5 0 -9 6 -9 15 0 7 23 -8 26 -7 1
-8 0 -2 -3z"/>
<path d="M4300 5299 c0 -5 -4 -8 -9 -5 -5 3 -11 -1 -15 -9 -3 -8 0 -17 6 -21
7 -5 8 -2 3 6 -6 9 -4 12 6 8 10 -4 15 1 16 13 1 10 0 19 -3 19 -2 0 -4 -5 -4
-11z"/>
<path d="M5491 5294 c0 -11 3 -14 6 -6 3 7 2 16 -1 19 -3 4 -6 -2 -5 -13z"/>
<path d="M4006 5287 c3 -10 9 -15 12 -12 3 3 0 11 -7 18 -10 9 -11 8 -5 -6z"/>
<path d="M4206 5291 c-3 -4 6 -7 19 -7 14 0 22 2 19 5 -8 8 -34 10 -38 2z"/>
<path d="M4360 5286 c0 -8 4 -17 9 -20 5 -4 7 3 4 14 -6 23 -13 26 -13 6z"/>
<path d="M4450 5290 c0 -5 5 -10 10 -10 6 0 10 5 10 10 0 6 -4 10 -10 10 -5 0
-10 -4 -10 -10z"/>
<path d="M4775 5289 c-6 -8 -4 -10 5 -4 10 6 12 4 6 -11 -6 -15 -5 -17 5 -6 9
9 10 15 2 23 -8 8 -13 7 -18 -2z"/>
<path d="M4833 5282 c0 -12 5 -22 9 -22 11 0 10 12 -2 30 -7 12 -9 10 -7 -8z"/>
<path d="M5000 5290 c-9 -6 -10 -10 -3 -10 6 0 15 5 18 10 8 12 4 12 -15 0z"/>
<path d="M5034 5292 c3 -5 0 -13 -6 -15 -10 -4 -10 -6 0 -6 7 -1 10 -5 7 -11
-4 -6 1 -7 11 -3 11 4 13 8 6 11 -7 2 -10 8 -7 12 3 5 0 12 -6 16 -7 4 -9 3
-5 -4z"/>
<path d="M5466 5286 c6 -15 4 -17 -6 -11 -9 6 -11 4 -5 -4 5 -9 10 -10 18 -2
8 8 7 14 -2 24 -10 10 -11 8 -5 -7z"/>
<path d="M5135 5280 c-4 -6 1 -7 11 -3 13 5 15 3 9 -7 -5 -9 -4 -11 4 -6 6 4
9 12 6 17 -8 12 -22 12 -30 -1z"/>
<path d="M5415 5280 c-3 -6 1 -7 9 -4 18 7 21 14 7 14 -6 0 -13 -4 -16 -10z"/>
<path d="M4094 5268 c-5 -7 -2 -8 6 -3 10 6 12 4 6 -10 -5 -15 -4 -16 9 -5 19
15 19 16 0 23 -8 4 -17 1 -21 -5z"/>
<path d="M4950 5270 c0 -4 6 -13 14 -19 11 -9 16 -9 22 0 5 8 3 9 -6 4 -9 -6
-12 -4 -8 7 4 9 0 15 -8 15 -8 0 -14 -4 -14 -7z"/>
<path d="M5214 5268 c-5 -7 -2 -8 6 -3 10 6 12 4 6 -10 -5 -15 -4 -16 9 -5 19
15 19 16 0 23 -8 4 -17 1 -21 -5z"/>
<path d="M5110 5266 c0 -2 8 -10 18 -17 15 -13 16 -12 3 4 -13 16 -21 21 -21
13z"/>
<path d="M5338 5258 c5 -5 16 -8 23 -6 8 3 3 7 -10 11 -17 4 -21 3 -13 -5z"/>
<path d="M5442 5254 c10 -10 20 -16 22 -13 3 3 -5 11 -17 18 -21 13 -21 12 -5
-5z"/>
<path d="M3985 5249 c-3 -4 2 -6 10 -5 21 3 28 13 10 13 -9 0 -18 -4 -20 -8z"/>
<path d="M4050 5249 c0 -5 4 -8 9 -4 6 3 14 -3 20 -12 6 -10 11 -13 11 -7 0
12 -20 34 -32 34 -4 0 -8 -5 -8 -11z"/>
<path d="M4310 5250 c0 -6 4 -9 9 -6 5 4 12 1 14 -4 3 -6 4 -5 3 2 -3 15 -26
23 -26 8z"/>
<path d="M4795 5251 c-3 -5 0 -13 6 -17 7 -4 9 -3 5 4 -3 5 0 13 6 15 9 4 10
6 1 6 -6 1 -14 -3 -18 -8z"/>
<path d="M4907 5241 c-3 -13 -1 -18 9 -14 7 2 10 11 7 19 -7 19 -10 18 -16 -5z"/>
<path d="M5080 5245 c-11 -13 -10 -14 4 -9 9 3 16 10 16 15 0 13 -6 11 -20 -6z"/>
<path d="M5170 5248 c0 -4 4 -8 9 -8 6 0 12 4 15 8 3 5 -1 9 -9 9 -8 0 -15 -4
-15 -9z"/>
<path d="M4355 5239 c-4 -6 -5 -12 -2 -15 2 -3 7 2 10 11 7 17 1 20 -8 4z"/>
<path d="M5279 5248 c-8 -27 -5 -36 9 -30 10 4 12 7 4 10 -7 2 -10 8 -6 13 3
5 3 9 0 9 -3 0 -6 -1 -7 -2z"/>
<path d="M4395 5231 c-3 -6 3 -14 13 -20 14 -7 19 -6 19 4 0 7 -7 11 -15 7
-10 -3 -13 -1 -8 6 4 7 5 12 2 12 -3 0 -7 -4 -11 -9z"/>
<path d="M4995 5231 c3 -5 1 -12 -5 -16 -5 -3 -10 -11 -10 -18 0 -6 7 -2 15 9
17 23 19 34 4 34 -5 0 -8 -4 -4 -9z"/>
<path d="M3981 5214 c0 -11 3 -14 6 -6 3 7 2 16 -1 19 -3 4 -6 -2 -5 -13z"/>
<path d="M4026 5217 c-16 -12 -16 -14 -3 -14 9 0 18 6 21 14 3 7 4 13 3 13 -2
0 -11 -6 -21 -13z"/>
<path d="M4300 5219 c0 -5 -6 -7 -12 -3 -7 4 -9 3 -5 -1 13 -15 36 -14 30 1
-6 17 -13 18 -13 3z"/>
<path d="M4861 5227 c2 -1 13 -9 24 -17 19 -14 19 -14 6 3 -7 9 -18 17 -24 17
-6 0 -8 -1 -6 -3z"/>
<path d="M5130 5220 c0 -5 -5 -9 -11 -7 -6 1 -14 -5 -16 -13 -4 -12 -3 -12 5
-2 5 8 13 13 18 12 5 -1 10 3 12 9 2 6 1 11 -2 11 -3 0 -6 -4 -6 -10z"/>
<path d="M5242 5210 c-15 -25 -15 -30 0 -30 6 0 8 3 5 7 -4 3 -2 12 5 20 6 7
9 15 7 18 -3 2 -10 -5 -17 -15z"/>
<path d="M5497 5211 c-3 -15 -1 -18 11 -14 11 5 13 3 7 -7 -5 -9 -4 -11 4 -6
9 6 9 12 -1 24 -7 10 -13 18 -14 20 -1 1 -4 -6 -7 -17z"/>
<path d="M3960 5206 c0 -8 4 -17 9 -20 5 -4 7 3 4 14 -6 23 -13 26 -13 6z"/>
<path d="M4444 5209 c-3 -6 -2 -15 4 -21 6 -6 12 -6 17 3 6 8 4 10 -5 4 -10
-6 -12 -4 -7 8 7 19 2 23 -9 6z"/>
<path d="M4756 5203 c-6 -14 -5 -15 5 -6 7 7 10 15 7 18 -3 3 -9 -2 -12 -12z"/>
<path d="M5352 5204 c10 -10 20 -16 22 -13 3 3 -5 11 -17 18 -21 13 -21 12 -5
-5z"/>
<path d="M4706 5193 c-6 -14 -5 -15 5 -6 7 7 10 15 7 18 -3 3 -9 -2 -12 -12z"/>
<path d="M4917 5199 c7 -7 15 -10 18 -7 3 3 -2 9 -12 12 -14 6 -15 5 -6 -5z"/>
<path d="M5413 5195 c0 -8 3 -15 6 -15 15 0 65 -155 57 -175 -3 -8 -1 -15 4
-15 12 0 9 -22 -5 -32 -6 -5 -5 -8 3 -8 9 0 11 -20 10 -75 -3 -63 -5 -73 -15
-58 -7 9 -13 23 -13 31 0 7 -4 10 -10 7 -13 -8 -13 1 1 28 10 21 9 21 -5 3
-15 -18 -83 -35 -72 -18 2 4 -4 8 -14 8 -10 0 -16 -6 -13 -13 3 -7 10 -10 15
-7 6 4 8 1 6 -7 -3 -8 -11 -13 -17 -12 -6 2 -11 0 -10 -5 3 -17 -14 -51 -22
-46 -5 3 -6 -2 -3 -10 3 -9 1 -16 -6 -16 -6 0 -8 -4 -5 -10 3 -5 1 -10 -4 -10
-6 0 -10 -3 -10 -7 1 -5 1 -15 0 -23 -1 -13 -2 -13 -11 0 -6 9 -10 10 -10 3 0
-6 5 -15 10 -18 7 -4 7 -12 0 -24 -5 -10 -6 -21 -3 -25 3 -3 1 -6 -6 -6 -8 0
-11 -6 -7 -16 3 -8 2 -13 -2 -10 -5 3 -9 -12 -10 -33 -1 -22 -6 -50 -10 -63
-15 -39 -15 -138 0 -155 11 -14 11 -15 -1 -8 -10 5 -12 4 -7 -3 4 -7 15 -12
25 -12 9 0 23 -6 30 -12 10 -11 11 -9 5 6 -5 13 -4 17 3 13 6 -4 16 0 23 9 7
8 19 13 26 10 8 -3 11 0 8 8 -3 7 6 21 18 32 13 11 18 12 10 3 -6 -9 -9 -19
-6 -22 8 -8 53 36 47 46 -2 4 4 7 14 7 11 0 14 3 7 8 -8 5 -3 23 16 60 14 28
29 50 32 47 3 -3 4 6 3 20 -2 14 1 27 6 31 5 3 9 16 9 29 0 13 4 26 10 30 5 3
7 12 3 20 -3 9 0 22 7 30 10 12 16 13 29 3 14 -12 14 -11 2 4 -7 10 -17 15
-22 12 -6 -3 -7 6 -4 23 4 15 6 55 6 88 0 35 5 63 12 67 8 5 7 8 -3 8 -10 0
-17 11 -18 31 -2 28 -22 103 -40 149 -3 8 -6 17 -7 20 -22 64 -72 116 -72 75z
m46 -413 c7 -16 11 -33 10 -38 -1 -5 0 -13 1 -19 4 -18 -2 -80 -8 -90 -4 -5
-7 -18 -8 -27 -3 -36 -4 -39 -14 -33 -7 4 -9 -2 -5 -17 4 -16 1 -29 -9 -37 -9
-8 -16 -18 -16 -23 0 -18 -41 -68 -51 -62 -5 3 -8 0 -7 -8 2 -7 -3 -12 -9 -10
-7 1 -12 -3 -10 -9 3 -16 -28 -33 -48 -25 -11 4 -15 13 -12 26 3 11 1 20 -5
20 -5 0 -6 5 -3 10 4 6 12 7 18 3 7 -4 6 1 -2 11 -9 10 -11 20 -5 24 5 4 10
21 11 37 5 65 23 116 37 108 6 -4 5 0 -2 9 -9 11 -10 18 -2 23 6 3 7 11 4 17
-5 7 -2 9 7 6 10 -4 15 1 17 15 1 17 -1 19 -8 7 -15 -23 -12 -7 6 35 27 66 45
87 60 74 12 -10 13 -8 8 6 -12 31 32 -1 45 -33z"/>
<path d="M5394 4792 c3 -5 0 -13 -6 -15 -9 -4 -10 -6 -1 -6 17 -1 25 16 12 25
-7 4 -9 3 -5 -4z"/>
<path d="M5428 4783 c7 -3 16 -2 19 1 4 3 -2 6 -13 5 -11 0 -14 -3 -6 -6z"/>
<path d="M5392 4731 c-11 -7 -11 -9 0 -14 9 -3 15 1 15 9 0 8 -1 14 -1 14 -1
0 -7 -4 -14 -9z"/>
<path d="M5440 4705 c-7 -8 -16 -12 -21 -9 -5 3 -9 1 -9 -4 0 -6 10 -9 23 -8
14 0 23 7 23 18 0 22 0 22 -16 3z"/>
<path d="M5371 4663 c-1 -17 16 -25 25 -12 4 7 3 9 -4 5 -5 -3 -13 0 -15 6 -4
9 -6 10 -6 1z"/>
<path d="M5433 4650 c-13 -5 -23 -12 -23 -14 0 -3 7 -2 17 1 11 4 14 3 9 -5
-4 -7 -5 -12 -2 -12 3 0 10 9 16 20 6 11 9 20 8 19 -2 0 -13 -4 -25 -9z"/>
<path d="M5335 4609 c-6 -8 -4 -10 5 -4 10 6 12 4 6 -11 -6 -15 -5 -17 5 -6 9
9 10 15 2 23 -8 8 -13 7 -18 -2z"/>
<path d="M5397 4606 c-3 -8 0 -17 7 -19 10 -4 12 1 9 14 -6 23 -9 24 -16 5z"/>
<path d="M5313 4575 c0 -8 4 -15 9 -15 4 0 8 4 8 9 0 6 -4 12 -8 15 -5 3 -9
-1 -9 -9z"/>
<path d="M5346 4546 c6 -15 4 -17 -6 -11 -9 6 -11 4 -5 -4 5 -9 10 -10 18 -2
8 8 7 14 -2 24 -10 10 -11 8 -5 -7z"/>
<path d="M5402 4551 c-10 -6 -10 -10 3 -21 13 -11 14 -10 9 5 -6 14 -4 16 6
10 9 -5 11 -4 6 3 -8 14 -7 14 -24 3z"/>
<path d="M5310 4511 c0 -6 4 -12 8 -15 5 -3 9 1 9 9 0 8 -4 15 -9 15 -4 0 -8
-4 -8 -9z"/>
<path d="M5377 4486 c-4 -10 -1 -13 8 -9 8 3 12 9 9 14 -7 12 -11 11 -17 -5z"/>
<path d="M5316 4471 c-3 -5 0 -14 8 -20 10 -9 15 -8 19 3 4 11 1 13 -10 9 -11
-4 -14 -2 -9 5 4 7 5 12 2 12 -3 0 -7 -4 -10 -9z"/>
<path d="M5308 4413 c5 -21 7 -23 10 -9 2 10 0 22 -6 28 -6 6 -7 0 -4 -19z"/>
<path d="M5285 4409 c-4 -6 -5 -12 -2 -15 2 -3 7 2 10 11 7 17 1 20 -8 4z"/>
<path d="M4070 5189 c0 -5 5 -7 10 -4 6 3 10 8 10 11 0 2 -4 4 -10 4 -5 0 -10
-5 -10 -11z"/>
<path d="M4256 5192 c-2 -4 -1 -14 3 -20 6 -10 11 -9 21 3 11 13 10 14 -5 9
-13 -5 -16 -4 -11 4 4 7 5 12 2 12 -3 0 -7 -4 -10 -8z"/>
<path d="M4955 5190 c3 -5 8 -10 11 -10 2 0 4 5 4 10 0 6 -5 10 -11 10 -5 0
-7 -4 -4 -10z"/>
<path d="M5323 5192 c-7 -4 -9 -13 -4 -21 6 -9 10 -7 14 8 3 12 4 21 4 21 -1
0 -7 -4 -14 -8z"/>
<path d="M4155 5179 c-4 -6 -5 -12 -2 -15 2 -3 7 2 10 11 7 17 1 20 -8 4z"/>
<path d="M4188 5183 c7 -3 16 -2 19 1 4 3 -2 6 -13 5 -11 0 -14 -3 -6 -6z"/>
<path d="M4777 5179 c7 -7 15 -10 18 -7 3 3 -2 9 -12 12 -14 6 -15 5 -6 -5z"/>
<path d="M5477 5170 c3 -11 9 -22 13 -25 5 -3 6 4 3 15 -3 11 -9 22 -13 25 -5
3 -6 -4 -3 -15z"/>
<path d="M3937 5166 c-4 -10 1 -12 14 -9 23 6 24 9 5 16 -8 3 -17 0 -19 -7z"/>
<path d="M4000 5170 c8 -5 20 -10 25 -10 6 0 3 5 -5 10 -8 5 -19 10 -25 10 -5
0 -3 -5 5 -10z"/>
<path d="M4045 5170 c-3 -5 -1 -10 4 -10 6 0 11 5 11 10 0 6 -2 10 -4 10 -3 0
-8 -4 -11 -10z"/>
<path d="M4230 5171 c0 -6 4 -13 10 -16 6 -3 7 1 4 9 -7 18 -14 21 -14 7z"/>
<path d="M4316 5165 c-11 -8 -15 -15 -9 -15 7 0 15 5 18 10 4 6 11 8 16 5 5
-4 9 -1 9 4 0 15 -11 13 -34 -4z"/>
<path d="M4384 5172 c4 -3 14 -7 22 -8 9 -1 13 0 10 4 -4 3 -14 7 -22 8 -9 1
-13 0 -10 -4z"/>
<path d="M4740 5170 c-9 -6 -10 -10 -3 -10 6 0 15 5 18 10 8 12 4 12 -15 0z"/>
<path d="M4925 5170 c-3 -6 1 -7 9 -4 18 7 21 14 7 14 -6 0 -13 -4 -16 -10z"/>
<path d="M4997 5166 c-3 -8 0 -17 7 -19 10 -4 12 1 9 14 -6 23 -9 24 -16 5z"/>
<path d="M5046 5172 c-3 -5 1 -9 9 -9 8 0 15 4 15 9 0 4 -4 8 -9 8 -6 0 -12
-4 -15 -8z"/>
<path d="M5100 5176 c0 -2 8 -10 18 -17 15 -13 16 -12 3 4 -13 16 -21 21 -21
13z"/>
<path d="M5140 5171 c0 -5 7 -12 16 -15 14 -5 15 -4 4 9 -14 17 -20 19 -20 6z"/>
<path d="M5197 5166 c-17 -13 -16 -14 2 -19 15 -3 18 -1 14 11 -5 11 -3 13 7
7 9 -5 11 -4 6 3 -9 14 -7 14 -29 -2z"/>
<path d="M5254 5168 c-5 -7 -2 -8 6 -3 9 6 12 4 8 -7 -4 -8 -1 -15 6 -15 17 0
16 25 0 31 -8 3 -16 0 -20 -6z"/>
<path d="M5387 5169 c7 -7 15 -10 18 -7 3 3 -2 9 -12 12 -14 6 -15 5 -6 -5z"/>
<path d="M4870 5166 c0 -2 9 -6 20 -9 11 -3 18 -1 14 4 -5 9 -34 13 -34 5z"/>
<path d="M3987 5143 c5 -12 3 -14 -8 -8 -8 5 -11 4 -6 0 4 -5 14 -10 22 -11
12 -2 12 2 5 17 -13 23 -22 25 -13 2z"/>
<path d="M4113 5155 c4 -5 -2 -14 -14 -20 -20 -11 -20 -12 -3 -19 10 -4 15 -4
11 0 -4 4 1 12 10 19 13 10 14 13 2 20 -8 5 -10 4 -6 0z"/>
<path d="M4355 5150 c-3 -6 1 -13 9 -16 9 -3 13 -10 10 -15 -3 -5 3 -6 12 -2
11 4 13 8 6 11 -7 2 -10 8 -7 13 4 5 -2 6 -11 2 -12 -4 -15 -3 -10 5 4 7 5 12
2 12 -3 0 -8 -5 -11 -10z"/>
<path d="M4717 5149 c7 -7 15 -10 18 -7 3 3 -2 9 -12 12 -14 6 -15 5 -6 -5z"/>
<path d="M5096 5148 c5 -7 2 -9 -8 -6 -8 4 -15 0 -15 -7 0 -10 5 -11 19 -4 16
9 17 29 2 29 -3 0 -2 -5 2 -12z"/>
<path d="M4221 5142 c-1 -7 -5 -10 -11 -7 -6 4 -7 -1 -3 -11 4 -11 8 -13 11
-6 2 7 8 10 12 7 5 -3 12 0 16 6 4 7 3 9 -4 5 -5 -3 -13 0 -15 6 -4 10 -6 10
-6 0z"/>
<path d="M4755 5141 c4 -8 2 -17 -6 -22 -9 -6 -10 -9 -2 -9 19 0 27 21 13 33
-10 9 -11 9 -5 -2z"/>
<path d="M5333 5144 c4 -4 -1 -13 -11 -21 -15 -12 -14 -13 8 -2 33 16 33 16
13 23 -9 4 -14 4 -10 0z"/>
<path d="M5417 5139 c7 -7 15 -10 18 -7 3 3 -2 9 -12 12 -14 6 -15 5 -6 -5z"/>
<path d="M4680 5121 c-7 -15 -7 -19 5 -17 8 1 18 6 22 11 4 4 2 5 -4 1 -7 -4
-13 -3 -13 3 0 5 6 12 13 14 9 4 9 6 0 6 -7 1 -17 -8 -23 -18z"/>
<path d="M4933 5127 c-4 -6 -1 -7 7 -2 9 6 12 4 8 -7 -4 -8 -1 -15 7 -15 7 0
11 6 8 13 -5 14 13 14 37 0 12 -7 13 -6 2 5 -15 16 -60 20 -69 6z"/>
<path d="M5126 5127 c3 -10 9 -15 12 -12 3 3 0 11 -7 18 -10 9 -11 8 -5 -6z"/>
<path d="M5225 5130 c-3 -6 1 -7 9 -4 18 7 21 14 7 14 -6 0 -13 -4 -16 -10z"/>
<path d="M5371 5124 c0 -11 3 -14 6 -6 3 7 2 16 -1 19 -3 4 -6 -2 -5 -13z"/>
<path d="M5585 5129 c-4 -6 -5 -12 -2 -15 2 -3 7 2 10 11 7 17 1 20 -8 4z"/>
<path d="M3953 5115 c0 -8 4 -15 9 -15 4 0 8 4 8 9 0 6 -4 12 -8 15 -5 3 -9
-1 -9 -9z"/>
<path d="M4159 5128 c-5 -18 -6 -38 -1 -34 7 8 12 36 6 36 -2 0 -4 -1 -5 -2z"/>
<path d="M4270 5110 c0 -5 5 -10 10 -10 6 0 10 5 10 10 0 6 -4 10 -10 10 -5 0
-10 -4 -10 -10z"/>
<path d="M5028 5113 c6 -2 9 -10 6 -15 -4 -7 -2 -8 5 -4 13 9 5 26 -12 25 -9
0 -8 -2 1 -6z"/>
<path d="M5110 5115 c0 -5 5 -17 10 -25 5 -8 10 -10 10 -5 0 6 -5 17 -10 25
-5 8 -10 11 -10 5z"/>
<path d="M5243 5112 c-7 -4 -9 -13 -4 -21 6 -9 10 -7 14 8 3 12 4 21 4 21 -1
0 -7 -4 -14 -8z"/>
<path d="M5508 5106 c10 -21 42 -31 42 -14 0 5 -6 8 -12 5 -7 -2 -19 3 -26 12
-12 14 -12 14 -4 -3z"/>
<path d="M3904 5079 c0 -9 6 -15 13 -12 7 3 11 9 8 13 -3 5 1 10 7 13 7 3 4 5
-7 4 -12 -1 -21 -8 -21 -18z"/>
<path d="M4107 5081 c-3 -13 -1 -18 9 -14 7 2 10 11 7 19 -7 19 -10 18 -16 -5z"/>
<path d="M4187 5083 c5 -12 3 -14 -7 -8 -8 5 -11 4 -6 -3 4 -6 13 -9 22 -5 11
4 12 9 3 19 -15 19 -20 18 -12 -3z"/>
<path d="M4244 5089 c-3 -6 -1 -16 5 -22 9 -9 10 -7 5 7 -6 15 -4 17 6 11 9
-5 11 -4 6 3 -9 15 -13 15 -22 1z"/>
<path d="M4295 5089 c-6 -8 -4 -10 5 -4 10 6 12 4 6 -11 -6 -15 -5 -17 5 -6 9
9 10 15 2 23 -8 8 -13 7 -18 -2z"/>
<path d="M4357 5086 c-3 -8 0 -17 7 -19 10 -4 12 1 9 14 -6 23 -9 24 -16 5z"/>
<path d="M4793 5090 c-13 -5 -23 -11 -23 -14 0 -7 40 6 46 15 6 10 6 10 -23
-1z"/>
<path d="M5082 5091 c-11 -6 -9 -9 6 -13 15 -4 19 -2 15 8 -6 16 -4 16 -21 5z"/>
<path d="M5170 5089 c0 -5 4 -8 9 -4 6 3 14 -3 20 -12 6 -10 11 -13 11 -7 0
12 -20 34 -32 34 -4 0 -8 -5 -8 -11z"/>
<path d="M5286 5088 c3 -4 9 -8 15 -8 5 0 9 4 9 8 0 5 -7 9 -15 9 -8 0 -12 -4
-9 -9z"/>
<path d="M5345 5089 c-3 -4 2 -6 10 -5 21 3 28 13 10 13 -9 0 -18 -4 -20 -8z"/>
<path d="M5431 5083 c7 -12 15 -20 18 -17 3 2 -3 12 -13 22 -17 16 -18 16 -5
-5z"/>
<path d="M4675 5079 c-4 -6 -5 -12 -2 -15 2 -3 7 2 10 11 7 17 1 20 -8 4z"/>
<path d="M4955 5080 c-4 -6 1 -7 11 -3 13 5 15 3 9 -7 -5 -9 -4 -11 4 -6 6 4
9 12 6 17 -8 12 -22 12 -30 -1z"/>
<path d="M4708 5053 c4 -19 2 -24 -8 -18 -9 5 -11 4 -6 -4 4 -6 12 -9 17 -6
11 8 12 42 0 49 -4 3 -6 -6 -3 -21z"/>
<path d="M4825 5050 c0 -15 3 -26 8 -23 4 2 7 13 7 23 0 10 -3 21 -7 23 -5 3
-8 -8 -8 -23z"/>
<path d="M4870 5070 c0 -5 5 -10 10 -10 6 0 10 5 10 10 0 6 -4 10 -10 10 -5 0
-10 -4 -10 -10z"/>
<path d="M4996 5064 c-3 -9 -2 -22 2 -31 6 -10 9 -5 9 16 0 35 -2 38 -11 15z"/>
<path d="M5047 5073 c-9 -9 -9 -41 1 -46 4 -3 7 8 7 24 0 16 0 29 -1 29 0 0
-4 -3 -7 -7z"/>
<path d="M5155 5070 c6 -9 4 -12 -6 -8 -10 4 -15 -1 -16 -16 0 -11 1 -15 4 -8
3 6 8 10 13 7 4 -3 10 2 14 10 3 8 0 17 -6 21 -7 5 -8 2 -3 -6z"/>
<path d="M5404 5069 c-3 -6 -1 -16 5 -22 9 -9 10 -7 5 7 -6 15 -4 17 6 11 9
-5 11 -4 6 3 -9 15 -13 15 -22 1z"/>
<path d="M5555 5071 c-9 -15 15 -25 28 -12 9 9 7 10 -7 5 -13 -5 -17 -4 -12 4
4 7 5 12 2 12 -3 0 -7 -4 -11 -9z"/>
<path d="M3955 5060 c-4 -6 -11 -8 -16 -5 -5 4 -9 1 -9 -4 0 -16 16 -13 30 4
7 8 10 15 7 15 -3 0 -9 -5 -12 -10z"/>
<path d="M4060 5066 c0 -2 7 -7 16 -10 8 -3 12 -2 9 4 -6 10 -25 14 -25 6z"/>
<path d="M4395 5060 c-8 -13 3 -30 18 -30 7 0 6 4 -3 10 -13 9 -13 11 0 20 9
6 10 10 3 10 -6 0 -15 -4 -18 -10z"/>
<path d="M4433 5055 c0 -8 4 -15 9 -15 4 0 8 4 8 9 0 6 -4 12 -8 15 -5 3 -9
-1 -9 -9z"/>
<path d="M4754 5050 c0 -13 4 -16 10 -10 7 7 7 13 0 20 -6 6 -10 3 -10 -10z"/>
<path d="M5222 5050 c0 -14 2 -19 5 -12 2 6 2 18 0 25 -3 6 -5 1 -5 -13z"/>
<path d="M5252 5050 c0 -14 2 -19 5 -12 2 6 2 18 0 25 -3 6 -5 1 -5 -13z"/>
<path d="M5340 5059 c0 -5 -4 -8 -9 -5 -5 3 -11 -1 -15 -9 -3 -8 0 -17 6 -21
7 -5 8 -2 3 6 -6 9 -4 12 6 8 10 -4 15 1 16 13 1 10 0 19 -3 19 -2 0 -4 -5 -4
-11z"/>
<path d="M5610 5061 c0 -6 4 -13 10 -16 6 -3 7 1 4 9 -7 18 -14 21 -14 7z"/>
<path d="M4152 5044 c-7 -8 -8 -14 -3 -14 10 0 25 19 20 25 -2 1 -10 -3 -17
-11z"/>
<path d="M4270 5050 c0 -5 5 -10 10 -10 6 0 10 5 10 10 0 6 -4 10 -10 10 -5 0
-10 -4 -10 -10z"/>
<path d="M4312 5044 c-7 -8 -8 -14 -3 -14 10 0 25 19 20 25 -2 1 -10 -3 -17
-11z"/>
<path d="M5520 5041 c0 -6 4 -13 10 -16 6 -3 7 1 4 9 -7 18 -14 21 -14 7z"/>
<path d="M4081 5022 c-7 -14 -6 -19 4 -19 7 0 11 7 7 15 -4 11 -1 13 8 7 9 -5
11 -4 6 3 -10 16 -14 15 -25 -6z"/>
<path d="M4187 5019 c6 -23 9 -24 16 -5 3 8 0 17 -7 19 -10 4 -12 -1 -9 -14z"/>
<path d="M4244 5029 c-3 -6 -2 -15 4 -21 6 -6 12 -6 17 3 6 8 4 10 -5 4 -10
-6 -12 -4 -7 8 7 19 2 23 -9 6z"/>
<path d="M4362 5031 c-10 -6 -10 -10 3 -21 13 -11 14 -10 9 5 -6 14 -4 16 6
10 9 -5 11 -4 6 3 -8 14 -7 14 -24 3z"/>
<path d="M4870 5030 c0 -5 5 -10 10 -10 6 0 10 5 10 10 0 6 -4 10 -10 10 -5 0
-10 -4 -10 -10z"/>
<path d="M4975 5030 c6 -10 4 -12 -11 -6 -15 6 -17 5 -6 -5 9 -9 15 -10 23 -2
8 8 7 13 -2 18 -8 6 -10 4 -4 -5z"/>
<path d="M5435 5030 c-13 -6 -15 -9 -5 -9 8 0 22 4 30 9 18 12 2 12 -25 0z"/>
<path d="M4030 5015 c0 -8 2 -15 4 -15 2 0 6 7 10 15 3 8 1 15 -4 15 -6 0 -10
-7 -10 -15z"/>
<path d="M4775 5020 c3 -4 14 -10 25 -13 11 -3 18 -2 15 3 -3 4 -14 10 -25 13
-11 3 -18 2 -15 -3z"/>
<path d="M5086 5021 c-17 -6 -17 -8 -4 -14 10 -3 19 0 22 9 3 8 4 14 3 13 -1
0 -11 -4 -21 -8z"/>
<path d="M5377 5014 c2 -7 11 -10 19 -7 19 7 18 10 -5 16 -13 3 -18 1 -14 -9z"/>
<path d="M5566 5021 c-17 -6 -17 -8 -4 -14 10 -3 19 0 22 9 3 8 4 14 3 13 -1
0 -11 -4 -21 -8z"/>
<path d="M5120 5005 c-7 -9 -11 -17 -9 -20 3 -2 10 5 17 15 14 24 10 26 -8 5z"/>
<path d="M5170 5012 c0 -5 7 -9 15 -9 8 0 12 4 9 9 -3 4 -9 8 -15 8 -5 0 -9
-4 -9 -8z"/>
<path d="M5227 5003 c5 -12 3 -14 -7 -8 -8 5 -11 4 -6 -3 4 -6 13 -9 22 -5 11
4 12 9 3 19 -15 19 -20 18 -12 -3z"/>
<path d="M5290 5010 c0 -5 5 -10 10 -10 6 0 10 5 10 10 0 6 -4 10 -10 10 -5 0
-10 -4 -10 -10z"/>
<path d="M5350 5011 c0 -6 4 -13 10 -16 6 -3 7 1 4 9 -7 18 -14 21 -14 7z"/>
<path d="M5606 5007 c3 -10 9 -15 12 -12 3 3 0 11 -7 18 -10 9 -11 8 -5 -6z"/>
<path d="M3896 5001 c-4 -5 3 -7 14 -4 23 6 26 13 6 13 -8 0 -17 -4 -20 -9z"/>
<path d="M5034 5002 c3 -5 0 -13 -6 -15 -9 -4 -10 -6 -1 -6 17 -1 25 16 12 25
-7 4 -9 3 -5 -4z"/>
<path d="M4113 4985 c0 -8 4 -12 9 -9 4 3 8 9 8 15 0 5 -4 9 -8 9 -5 0 -9 -7
-9 -15z"/>
<path d="M4273 4985 c0 -8 4 -12 9 -9 4 3 8 9 8 15 0 5 -4 9 -8 9 -5 0 -9 -7
-9 -15z"/>
<path d="M4632 4980 c-18 -29 -15 -38 4 -12 9 13 14 25 12 27 -2 2 -9 -5 -16
-15z"/>
<path d="M4948 4982 c4 -11 1 -13 -9 -7 -8 5 -11 4 -6 -1 13 -14 56 -12 70 4
10 13 9 14 -3 7 -23 -14 -42 -15 -37 -1 3 7 -1 13 -8 13 -8 0 -11 -7 -7 -15z"/>
<path d="M5155 4990 c6 -10 4 -12 -11 -6 -15 6 -17 5 -6 -5 9 -9 15 -10 23 -2
8 8 7 13 -2 18 -8 6 -10 4 -4 -5z"/>
<path d="M5316 4992 c-2 -4 2 -15 9 -25 12 -17 13 -16 18 2 3 15 1 18 -11 14
-10 -4 -13 -2 -8 5 4 7 5 12 2 12 -3 0 -7 -3 -10 -8z"/>
<path d="M4363 4970 c-9 -14 -10 -21 -1 -26 7 -5 8 -3 3 6 -6 10 -4 12 7 7 12
-4 14 -1 11 14 -6 23 -6 23 -20 -1z"/>
<path d="M4756 4975 c23 -17 34 -19 34 -4 0 5 -4 8 -9 4 -5 -3 -12 -1 -16 5
-3 5 -11 10 -18 10 -6 0 -2 -7 9 -15z"/>
<path d="M3877 4966 c-4 -11 -1 -13 10 -9 12 5 14 3 8 -7 -5 -9 -4 -11 4 -6 9
6 9 11 0 22 -14 17 -16 17 -22 0z"/>
<path d="M4204 4969 c-4 -7 -3 -9 4 -5 5 3 13 0 15 -6 4 -9 6 -10 6 -1 1 17
-16 25 -25 12z"/>
<path d="M4680 4966 c0 -8 4 -17 9 -20 5 -4 7 3 4 14 -6 23 -13 26 -13 6z"/>
<path d="M5073 4966 c0 -8 6 -12 14 -9 7 3 13 -2 13 -10 0 -8 -6 -18 -12 -20
-10 -4 -10 -6 0 -6 7 -1 12 -17 12 -45 0 -40 -2 -44 -22 -40 l-23 5 23 -10
c12 -6 22 -15 22 -21 0 -6 -4 -9 -9 -5 -5 3 -13 0 -17 -6 -4 -7 -3 -9 4 -5 6
3 13 2 16 -3 4 -5 2 -13 -4 -16 -8 -5 -7 -11 1 -21 6 -8 8 -14 3 -14 -5 0 -9
-29 -8 -65 0 -50 -3 -68 -15 -75 -10 -6 -11 -10 -3 -10 8 0 11 -10 7 -27 -2
-16 -5 -43 -7 -60 -2 -34 -12 -43 -21 -20 -4 9 -6 9 -6 -1 -1 -7 5 -15 13 -18
11 -4 13 -12 5 -31 -5 -13 -9 -35 -9 -48 0 -13 -8 -29 -17 -34 -12 -7 -13 -10
-4 -11 9 0 11 -8 7 -26 -6 -22 -4 -25 9 -20 9 3 22 6 29 6 8 0 11 10 8 30 -3
19 0 30 8 30 7 0 10 6 7 14 -3 7 -2 31 3 52 5 22 11 60 14 86 4 26 9 53 11 60
8 22 25 124 27 166 1 7 6 11 11 9 15 -5 17 -37 4 -37 -9 0 -9 -2 -1 -8 7 -4
15 -24 18 -46 4 -21 9 -42 12 -47 3 -5 1 -9 -4 -9 -5 0 -7 -11 -4 -25 5 -30
18 -32 27 -5 3 11 10 20 15 20 4 0 6 9 3 20 -3 13 0 20 8 20 10 0 11 2 2 8 -6
4 -14 25 -17 47 -2 22 -8 49 -12 59 -6 15 -4 17 7 11 11 -7 12 -6 2 6 -6 8
-13 27 -15 41 -2 15 -7 30 -11 34 -4 4 -7 16 -7 26 0 10 -5 18 -11 18 -5 0 -7
6 -3 13 6 10 4 10 -7 0 -20 -19 -24 -16 -25 17 -2 27 0 29 14 18 10 -8 13 -9
9 -1 -4 6 -4 13 0 16 5 2 2 2 -4 1 -7 -2 -13 1 -13 6 0 5 -6 7 -14 4 -8 -3
-25 2 -39 10 -19 13 -24 14 -24 2z m74 -118 c-3 -8 -6 -5 -6 6 -1 11 2 17 5
13 3 -3 4 -12 1 -19z m25 -63 c3 -14 1 -25 -3 -25 -5 0 -9 11 -9 25 0 14 2 25
4 25 2 0 6 -11 8 -25z"/>
<path d="M5235 4964 c-10 -8 -14 -14 -8 -14 7 0 14 4 18 9 3 6 15 8 27 6 11
-3 18 -1 14 2 -12 12 -32 11 -51 -3z"/>
<path d="M5402 4968 c-15 -15 -15 -28 -1 -28 5 0 8 4 4 9 -3 6 3 14 12 20 10
6 13 11 8 11 -6 0 -16 -5 -23 -12z"/>
<path d="M4256 4952 c-2 -4 -1 -14 3 -20 6 -10 11 -9 21 3 11 13 10 14 -5 9
-13 -5 -16 -4 -11 4 4 7 5 12 2 12 -3 0 -7 -4 -10 -8z"/>
<path d="M4747 4939 c4 -13 8 -18 11 -10 2 7 -1 18 -6 23 -8 8 -9 4 -5 -13z"/>
<path d="M5003 4952 c-7 -4 -9 -13 -4 -21 6 -9 10 -7 14 8 3 12 4 21 4 21 -1
0 -7 -4 -14 -8z"/>
<path d="M4097 4934 c2 -7 11 -10 19 -7 19 7 18 10 -5 16 -13 3 -18 1 -14 -9z"/>
<path d="M4885 4940 c-16 -7 -17 -9 -3 -9 9 -1 20 4 23 9 7 11 7 11 -20 0z"/>
<path d="M3906 4932 c-2 -4 4 -8 14 -8 10 0 16 4 14 8 -3 4 -9 8 -14 8 -5 0
-11 -4 -14 -8z"/>
<path d="M4015 4930 c-3 -5 -1 -10 4 -10 6 0 11 5 11 10 0 6 -2 10 -4 10 -3 0
-8 -4 -11 -10z"/>
<path d="M4156 4925 c-11 -8 -15 -15 -9 -15 7 0 15 5 18 10 4 6 11 8 16 5 5
-4 9 -1 9 4 0 15 -11 13 -34 -4z"/>
<path d="M4225 4930 c11 -17 15 -40 8 -40 -2 0 -14 5 -26 11 -20 9 -20 9 -5
-4 10 -8 15 -17 11 -21 -4 -4 1 -4 11 0 15 6 17 4 11 -7 -5 -8 -4 -11 1 -6 14
13 12 56 -4 70 -13 10 -14 9 -7 -3z"/>
<path d="M4330 4930 c0 -5 5 -10 10 -10 6 0 10 5 10 10 0 6 -4 10 -10 10 -5 0
-10 -4 -10 -10z"/>
<path d="M4390 4928 c0 -4 4 -8 9 -8 6 0 12 4 15 8 3 5 -1 9 -9 9 -8 0 -15 -4
-15 -9z"/>
<path d="M4624 4932 c4 -3 14 -7 22 -8 9 -1 13 0 10 4 -4 3 -14 7 -22 8 -9 1
-13 0 -10 -4z"/>
<path d="M4927 4929 c7 -7 15 -10 18 -7 3 3 -2 9 -12 12 -14 6 -15 5 -6 -5z"/>
<path d="M5046 4928 c3 -4 9 -8 15 -8 5 0 9 4 9 8 0 5 -7 9 -15 9 -8 0 -12 -4
-9 -9z"/>
<path d="M5321 4926 c-9 -10 -8 -15 3 -19 9 -4 18 -1 22 5 5 7 2 8 -6 3 -10
-6 -12 -4 -7 8 8 21 3 22 -12 3z"/>
<path d="M5413 4927 c-4 -6 -1 -7 7 -2 10 6 12 4 7 -8 -9 -23 0 -22 12 1 8 14
6 19 -5 19 -8 0 -18 -5 -21 -10z"/>
<path d="M4675 4919 c-4 -6 -5 -12 -2 -15 2 -3 7 2 10 11 7 17 1 20 -8 4z"/>
<path d="M5255 4920 c-3 -6 1 -7 9 -4 18 7 21 14 7 14 -6 0 -13 -4 -16 -10z"/>
<path d="M4356 4911 c-3 -5 0 -14 8 -20 10 -9 15 -8 19 3 4 11 1 13 -10 9 -11
-4 -14 -2 -9 5 4 7 5 12 2 12 -3 0 -7 -4 -10 -9z"/>
<path d="M4719 4918 c-8 -21 -2 -61 9 -71 13 -10 14 -9 7 3 -14 23 -15 42 -1
37 7 -3 13 1 13 8 0 8 -7 11 -15 7 -10 -3 -13 -1 -8 6 4 7 5 12 2 12 -3 0 -6
-1 -7 -2z"/>
<path d="M4955 4910 c-3 -5 -1 -10 4 -10 6 0 11 5 11 10 0 6 -2 10 -4 10 -3 0
-8 -4 -11 -10z"/>
<path d="M5186 4907 c4 -10 15 -22 25 -28 15 -8 17 -6 13 6 -4 9 -9 13 -12 11
-3 -3 -11 2 -19 12 -12 16 -13 16 -7 -1z"/>
<path d="M5590 4910 c0 -5 5 -10 10 -10 6 0 10 5 10 10 0 6 -4 10 -10 10 -5 0
-10 -4 -10 -10z"/>
<path d="M3900 4898 c0 -9 7 -19 16 -22 15 -6 15 -4 3 11 -7 10 -15 20 -16 22
-2 2 -3 -3 -3 -11z"/>
<path d="M4061 4902 c-1 -7 -6 -10 -13 -6 -6 4 -8 3 -5 -4 8 -12 32 -10 44 3
4 4 3 5 -4 2 -6 -4 -14 -1 -16 5 -4 10 -6 10 -6 0z"/>
<path d="M4593 4904 c4 -4 -1 -13 -11 -21 -16 -12 -16 -13 2 -6 14 5 17 3 11
-7 -5 -9 -4 -11 4 -6 6 4 9 11 6 16 -3 4 0 10 7 12 7 3 4 7 -7 12 -11 4 -16 4
-12 0z"/>
<path d="M4647 4897 c-3 -8 1 -14 8 -14 7 0 11 6 8 14 -3 7 -6 13 -8 13 -2 0
-5 -6 -8 -13z"/>
<path d="M4919 4903 c-1 -5 -1 -11 0 -15 0 -4 -15 -12 -34 -18 -19 -6 -35 -18
-35 -26 0 -17 -10 -17 -32 0 -10 7 -14 17 -10 22 4 4 0 3 -9 -4 -9 -6 -19 -9
-22 -5 -4 3 -7 1 -7 -6 0 -7 6 -11 13 -8 18 6 47 -11 47 -28 0 -8 -4 -15 -10
-15 -5 0 -10 -11 -10 -24 0 -14 -4 -27 -8 -30 -5 -3 -8 -19 -7 -36 1 -16 -2
-30 -6 -30 -4 0 -4 -15 0 -32 4 -18 7 -45 7 -60 -1 -16 2 -28 6 -28 4 0 8 -4
8 -9 0 -6 -12 -6 -30 -1 -17 5 -28 5 -25 0 3 -5 -3 -14 -12 -20 -17 -11 -17
-11 0 -6 11 3 17 0 17 -10 0 -9 -5 -12 -12 -8 -7 5 -8 3 -2 -7 4 -8 9 -34 10
-59 1 -25 2 -45 3 -45 2 0 4 -11 6 -25 2 -14 9 -38 16 -55 7 -16 11 -34 10
-38 -1 -5 3 -6 8 -3 5 4 16 -3 24 -15 12 -17 19 -19 35 -10 15 8 22 8 25 -2 4
-9 6 -9 6 1 1 6 7 12 14 12 16 0 47 34 73 81 10 19 22 36 26 39 7 6 16 39 17
68 1 7 5 11 10 8 5 -4 7 3 4 15 -4 12 0 25 8 30 9 5 9 9 2 9 -6 0 -9 9 -6 20
3 11 10 17 16 13 6 -4 7 -1 2 8 -16 24 -12 79 5 80 13 0 13 1 0 7 -8 4 -16 18
-16 32 -2 39 -11 76 -25 101 -8 16 -8 24 -1 27 5 1 -8 21 -31 42 -22 22 -44
37 -48 35 -4 -3 -9 2 -12 9 -3 8 -1 17 6 20 9 3 9 5 0 5 -7 1 -14 -2 -14 -6z
m28 -90 c26 -24 34 -48 20 -62 -9 -9 -8 -11 6 -6 17 7 18 5 21 -50 1 -11 -3
-23 -9 -27 -6 -5 -6 -8 2 -8 16 0 8 -151 -9 -162 -10 -6 -10 -8 0 -8 10 0 10
-5 2 -21 -7 -11 -9 -23 -7 -26 8 -8 -32 -96 -55 -120 -12 -13 -33 -23 -49 -23
-30 0 -55 23 -43 41 4 7 3 9 -3 6 -6 -4 -14 1 -17 10 -4 9 -1 20 6 25 8 5 9 8
2 8 -19 0 -23 60 -5 70 9 5 11 10 6 10 -12 0 -15 50 -3 50 4 0 11 -12 14 -27
4 -14 17 -44 30 -67 15 -26 20 -44 14 -51 -7 -8 -5 -12 5 -12 8 0 12 4 9 9 -3
5 6 7 20 4 29 -5 30 -10 -15 77 -21 41 -22 49 -9 58 12 8 12 9 -5 7 -12 -2
-21 4 -23 16 -3 13 0 16 10 11 7 -3 4 0 -6 9 -18 15 -29 70 -17 91 3 6 6 21 7
35 2 51 25 109 51 129 31 25 26 25 50 4z"/>
<path d="M4900 4790 c8 -5 20 -10 25 -10 6 0 3 5 -5 10 -8 5 -19 10 -25 10 -5
0 -3 -5 5 -10z"/>
<path d="M4882 4768 c-15 -15 -15 -28 0 -28 6 0 8 3 5 7 -4 3 -2 12 4 20 14
16 7 17 -9 1z"/>
<path d="M4925 4749 c-4 -6 -5 -12 -2 -15 2 -3 7 2 10 11 7 17 1 20 -8 4z"/>
<path d="M4950 4720 c6 -11 13 -20 16 -20 2 0 0 9 -6 20 -6 11 -13 20 -16 20
-2 0 0 -9 6 -20z"/>
<path d="M4857 4651 c-3 -13 -1 -18 9 -14 7 2 10 11 7 19 -7 19 -10 18 -16 -5z"/>
<path d="M4916 4643 c-6 -14 -5 -15 5 -6 7 7 10 15 7 18 -3 3 -9 -2 -12 -12z"/>
<path d="M4958 4633 c7 -3 16 -2 19 1 4 3 -2 6 -13 5 -11 0 -14 -3 -6 -6z"/>
<path d="M4938 4618 c5 -5 16 -8 23 -6 8 3 3 7 -10 11 -17 4 -21 3 -13 -5z"/>
<path d="M4900 4610 c-9 -6 -10 -10 -3 -10 6 0 15 5 18 10 8 12 4 12 -15 0z"/>
<path d="M4877 4583 c-10 -9 -9 -23 1 -23 5 0 9 7 9 15 0 17 -1 18 -10 8z"/>
<path d="M4900 4586 c0 -2 7 -7 16 -10 8 -3 12 -2 9 4 -6 10 -25 14 -25 6z"/>
<path d="M4946 4568 c3 -4 12 -8 20 -8 8 0 14 4 14 8 0 4 -9 8 -19 8 -11 0
-17 -4 -15 -8z"/>
<path d="M4922 4551 c-10 -6 -10 -10 2 -20 11 -9 16 -9 22 0 5 8 3 9 -6 4 -10
-6 -12 -4 -7 8 7 19 7 20 -11 8z"/>
<path d="M4900 4499 c0 -5 -4 -7 -10 -4 -6 4 -7 -1 -3 -11 4 -11 8 -13 11 -6
2 7 8 10 13 7 5 -4 6 1 3 9 -7 18 -14 21 -14 5z"/>
<path d="M4900 4449 c0 -5 5 -7 10 -4 6 3 10 8 10 11 0 2 -4 4 -10 4 -5 0 -10
-5 -10 -11z"/>
<path d="M4931 4457 c2 -1 13 -9 24 -17 19 -14 19 -14 6 3 -7 9 -18 17 -24 17
-6 0 -8 -1 -6 -3z"/>
<path d="M4925 4430 c-3 -5 1 -20 9 -31 15 -22 15 -22 13 -1 0 11 -5 18 -11
15 -5 -4 -7 1 -3 10 7 19 2 23 -8 7z"/>
<path d="M4826 4413 c-6 -14 -5 -15 5 -6 7 7 10 15 7 18 -3 3 -9 -2 -12 -12z"/>
<path d="M4891 4343 c-1 -17 16 -25 25 -12 4 7 3 9 -4 5 -5 -3 -13 0 -15 6 -4
9 -6 10 -6 1z"/>
<path d="M4980 4903 c0 -7 5 -15 10 -18 6 -4 8 -11 5 -16 -4 -5 -1 -9 4 -9 15
0 13 11 -4 34 -8 11 -15 15 -15 9z"/>
<path d="M5236 4897 c3 -10 9 -15 12 -12 3 3 0 11 -7 18 -10 9 -11 8 -5 -6z"/>
<path d="M5355 4900 c-3 -6 1 -7 9 -4 18 7 21 14 7 14 -6 0 -13 -4 -16 -10z"/>
<path d="M3875 4891 c-3 -5 -2 -12 3 -15 5 -3 9 1 9 9 0 17 -3 19 -12 6z"/>
<path d="M4122 4888 c-15 -15 -15 -28 -1 -28 5 0 8 4 4 9 -3 6 3 14 12 20 10
6 13 11 8 11 -6 0 -16 -5 -23 -12z"/>
<path d="M4283 4888 c-3 -6 -1 -8 5 -4 5 3 13 0 15 -6 4 -10 6 -10 6 0 1 8 6
10 14 6 6 -4 8 -3 4 1 -12 13 -36 15 -44 3z"/>
<path d="M4765 4889 c-4 -6 -5 -12 -2 -15 2 -3 7 2 10 11 7 17 1 20 -8 4z"/>
<path d="M5307 4889 c7 -7 15 -10 18 -7 3 3 -2 9 -12 12 -14 6 -15 5 -6 -5z"/>
<path d="M5390 4890 c0 -5 5 -10 10 -10 6 0 10 5 10 10 0 6 -4 10 -10 10 -5 0
-10 -4 -10 -10z"/>
<path d="M4386 4873 c-6 -14 -5 -15 5 -6 7 7 10 15 7 18 -3 3 -9 -2 -12 -12z"/>
<path d="M4837 4879 c7 -7 15 -10 18 -7 3 3 -2 9 -12 12 -14 6 -15 5 -6 -5z"/>
<path d="M5596 4881 c-3 -5 1 -11 9 -14 9 -4 12 -1 8 9 -6 16 -10 17 -17 5z"/>
<path d="M4027 4869 c7 -7 15 -10 18 -7 3 3 -2 9 -12 12 -14 6 -15 5 -6 -5z"/>
<path d="M4435 4871 c3 -6 -3 -14 -12 -20 -10 -6 -13 -11 -7 -11 12 0 34 20
34 32 0 4 -5 8 -11 8 -5 0 -8 -4 -4 -9z"/>
<path d="M5076 4863 c-6 -14 -5 -15 5 -6 7 7 10 15 7 18 -3 3 -9 -2 -12 -12z"/>
<path d="M5277 4867 c4 -6 -1 -8 -11 -4 -9 4 -15 3 -12 -2 9 -14 45 -20 53 -9
4 7 1 8 -7 3 -9 -6 -12 -4 -8 7 4 8 0 15 -8 15 -7 0 -10 -5 -7 -10z"/>
<path d="M4338 4858 c5 -5 16 -8 23 -6 8 3 3 7 -10 11 -17 4 -21 3 -13 -5z"/>
<path d="M4635 4860 c-4 -6 -11 -8 -16 -5 -5 4 -9 1 -9 -4 0 -15 11 -13 34 4
11 8 15 15 9 15 -7 0 -15 -5 -18 -10z"/>
<path d="M4133 4847 c-4 -6 -1 -7 7 -2 10 6 12 4 7 -8 -9 -23 0 -22 12 1 8 14
6 19 -5 19 -8 0 -18 -5 -21 -10z"/>
<path d="M4197 4846 c-3 -8 0 -17 7 -19 10 -4 12 1 9 14 -6 23 -9 24 -16 5z"/>
<path d="M4307 4849 c7 -9 10 -19 6 -22 -3 -4 -1 -7 5 -7 17 0 15 16 -5 31
-16 12 -17 12 -6 -2z"/>
<path d="M4556 4845 c-9 -26 -7 -32 5 -12 6 10 9 21 6 23 -2 3 -7 -2 -11 -11z"/>
<path d="M4681 4846 c-9 -11 -9 -16 0 -22 8 -5 9 -3 4 6 -6 10 -4 12 8 7 11
-4 14 -2 10 9 -6 17 -8 17 -22 0z"/>
<path d="M5570 4850 c0 -5 5 -10 10 -10 6 0 10 5 10 10 0 6 -4 10 -10 10 -5 0
-10 -4 -10 -10z"/>
<path d="M5637 4849 c7 -7 15 -10 18 -7 3 3 -2 9 -12 12 -14 6 -15 5 -6 -5z"/>
<path d="M5034 4842 c3 -5 0 -13 -6 -15 -9 -4 -10 -6 -1 -6 17 -1 25 16 12 25
-7 4 -9 3 -5 -4z"/>
<path d="M3945 4810 c0 -15 3 -26 8 -23 4 2 7 13 7 23 0 10 -3 21 -7 23 -5 3
-8 -8 -8 -23z"/>
<path d="M4254 4829 c-4 -7 -3 -9 4 -5 6 3 13 -2 15 -11 4 -16 5 -16 6 -1 1
21 -15 32 -25 17z"/>
<path d="M4397 4829 c7 -7 15 -10 18 -7 3 3 -2 9 -12 12 -14 6 -15 5 -6 -5z"/>
<path d="M4595 4830 c6 -10 4 -12 -7 -7 -12 4 -14 1 -11 -14 3 -11 6 -18 7
-17 1 2 7 10 14 20 10 12 10 18 1 24 -8 5 -9 3 -4 -6z"/>
<path d="M5313 4833 c4 -3 1 -13 -6 -22 -11 -14 -10 -14 6 -2 20 15 22 31 5
31 -6 0 -8 -3 -5 -7z"/>
<path d="M5627 4819 c4 -13 8 -18 11 -10 2 7 -1 18 -6 23 -8 8 -9 4 -5 -13z"/>
<path d="M4731 4823 c-1 -17 16 -25 25 -12 4 7 3 9 -4 5 -5 -3 -13 0 -15 6 -4
9 -6 10 -6 1z"/>
<path d="M4120 4810 c8 -5 20 -10 25 -10 6 0 3 5 -5 10 -8 5 -19 10 -25 10 -5
0 -3 -5 5 -10z"/>
<path d="M4170 4809 c0 -5 4 -8 9 -4 5 3 12 1 16 -5 3 -5 11 -10 18 -10 6 0 2
7 -9 15 -23 17 -34 19 -34 4z"/>
<path d="M4361 4804 c0 -11 3 -14 6 -6 3 7 2 16 -1 19 -3 4 -6 -2 -5 -13z"/>
<path d="M4784 4804 c-18 -14 -18 -15 4 -4 12 6 22 13 22 15 0 8 -5 6 -26 -11z"/>
<path d="M5250 4810 c0 -5 5 -10 10 -10 6 0 10 5 10 10 0 6 -4 10 -10 10 -5 0
-10 -4 -10 -10z"/>
<path d="M4074 4802 c3 -5 0 -13 -6 -15 -9 -4 -10 -6 -1 -6 17 -1 25 16 12 25
-7 4 -9 3 -5 -4z"/>
<path d="M4677 4803 c-10 -9 -9 -23 1 -23 5 0 9 7 9 15 0 17 -1 18 -10 8z"/>
<path d="M5575 4801 c-4 -7 0 -8 11 -4 11 4 15 3 10 -5 -9 -15 14 -26 27 -13
9 9 8 11 -6 5 -12 -4 -17 -2 -15 6 4 16 -18 25 -27 11z"/>
<path d="M4310 4791 c0 -5 8 -15 18 -22 15 -12 16 -12 5 2 -7 9 -10 19 -6 22
3 4 1 7 -5 7 -7 0 -12 -4 -12 -9z"/>
<path d="M5033 4777 c0 -7 9 -14 19 -14 10 -1 18 3 18 9 0 6 -3 8 -7 5 -3 -4
-11 -2 -18 3 -8 7 -12 6 -12 -3z"/>
<path d="M5646 4773 c-6 -14 -5 -15 5 -6 7 7 10 15 7 18 -3 3 -9 -2 -12 -12z"/>
<path d="M3962 4771 c-11 -6 -9 -9 6 -13 15 -4 19 -2 15 8 -6 16 -4 16 -21 5z"/>
<path d="M4370 4768 c0 -4 4 -8 9 -8 6 0 12 4 15 8 3 5 -1 9 -9 9 -8 0 -15 -4
-15 -9z"/>
<path d="M4410 4776 c0 -2 7 -7 16 -10 8 -3 12 -2 9 4 -6 10 -25 14 -25 6z"/>
<path d="M4586 4765 c4 -8 11 -15 16 -15 6 0 5 6 -2 15 -7 8 -14 15 -16 15 -2
0 -1 -7 2 -15z"/>
<path d="M4693 4767 c-4 -6 -1 -7 7 -2 10 6 12 4 7 -8 -9 -23 0 -22 12 1 8 14
6 19 -5 19 -8 0 -18 -5 -21 -10z"/>
<path d="M4757 4766 c-3 -8 0 -17 7 -19 10 -4 12 1 9 14 -6 23 -9 24 -16 5z"/>
<path d="M5553 4765 c0 -8 6 -16 13 -19 7 -3 10 2 7 15 -6 22 -20 26 -20 4z"/>
<path d="M3873 4755 c0 -8 4 -15 9 -15 4 0 8 4 8 9 0 6 -4 12 -8 15 -5 3 -9
-1 -9 -9z"/>
<path d="M4137 4763 c-3 -5 8 -8 23 -8 15 0 26 3 23 8 -2 4 -13 7 -23 7 -10 0
-21 -3 -23 -7z"/>
<path d="M5256 4761 c-4 -5 3 -7 14 -4 23 6 26 13 6 13 -8 0 -17 -4 -20 -9z"/>
<path d="M3919 4739 c-6 -13 -7 -19 -1 -15 6 3 13 0 15 -6 4 -10 6 -10 6 0 1
7 6 10 13 6 7 -4 8 -3 4 5 -4 6 -12 8 -18 5 -7 -5 -9 -1 -5 9 9 24 0 21 -14
-4z"/>
<path d="M4245 4749 c-4 -6 -5 -12 -2 -15 2 -3 7 2 10 11 7 17 1 20 -8 4z"/>
<path d="M4116 4736 c3 -8 13 -17 22 -21 13 -5 13 -2 -3 15 -21 24 -26 25 -19
6z"/>
<path d="M4185 4730 c-18 -20 -18 -21 0 -14 14 6 16 4 10 -7 -4 -8 -4 -11 0
-6 7 6 16 47 10 47 -1 0 -10 -9 -20 -20z"/>
<path d="M4555 4737 c11 -6 22 -12 25 -12 3 0 12 -4 20 -10 13 -8 13 -7 1 8
-7 9 -17 15 -21 12 -5 -3 -11 -1 -15 5 -3 5 -12 10 -18 10 -7 0 -3 -6 8 -13z"/>
<path d="M4635 4740 c-3 -5 -3 -10 2 -10 4 0 1 -5 -7 -11 -10 -7 -11 -9 -2 -7
8 2 13 7 12 12 -1 5 4 13 12 17 9 6 9 9 1 9 -6 0 -15 -4 -18 -10z"/>
<path d="M4670 4746 c0 -2 8 -10 18 -17 15 -13 16 -12 3 4 -13 16 -21 21 -21
13z"/>
<path d="M4261 4724 c0 -11 3 -14 6 -6 3 7 2 16 -1 19 -3 4 -6 -2 -5 -13z"/>
<path d="M4297 4725 c-4 -8 -1 -17 5 -21 7 -5 8 -2 3 6 -6 10 -4 12 10 6 15
-5 16 -4 5 9 -15 19 -16 19 -23 0z"/>
<path d="M4353 4725 c0 -7 6 -11 14 -8 7 3 13 6 13 8 0 2 -6 5 -13 8 -8 3 -14
-1 -14 -8z"/>
<path d="M4520 4730 c8 -5 20 -10 25 -10 6 0 3 5 -5 10 -8 5 -19 10 -25 10 -5
0 -3 -5 5 -10z"/>
<path d="M4747 4729 c7 -7 15 -10 18 -7 3 3 -2 9 -12 12 -14 6 -15 5 -6 -5z"/>
<path d="M5242 4726 c7 -8 15 -12 17 -11 5 6 -10 25 -20 25 -5 0 -4 -6 3 -14z"/>
<path d="M5630 4720 c-9 -6 -10 -10 -3 -10 6 0 15 5 18 10 8 12 4 12 -15 0z"/>
<path d="M4236 4705 c-3 -9 -10 -13 -16 -10 -5 3 -10 1 -10 -4 0 -6 4 -11 9
-11 12 0 35 29 29 36 -3 3 -8 -2 -12 -11z"/>
<path d="M4507 4699 c6 -23 9 -24 16 -5 3 8 0 17 -7 19 -10 4 -12 -1 -9 -14z"/>
<path d="M4654 4708 c-5 -7 -2 -8 6 -3 10 6 12 4 6 -10 -5 -15 -4 -16 9 -5 19
15 19 16 0 23 -8 4 -17 1 -21 -5z"/>
<path d="M4724 4709 c-3 -6 -2 -15 4 -21 6 -6 12 -6 17 3 6 8 4 10 -5 4 -10
-6 -12 -4 -7 8 7 19 2 23 -9 6z"/>
<path d="M5588 4713 c7 -3 16 -2 19 1 4 3 -2 6 -13 5 -11 0 -14 -3 -6 -6z"/>
<path d="M4557 4697 c-3 -8 1 -14 8 -14 7 0 11 6 8 14 -3 7 -6 13 -8 13 -2 0
-5 -6 -8 -13z"/>
<path d="M3882 4691 c-11 -6 -9 -9 6 -13 15 -4 19 -2 15 8 -6 16 -4 16 -21 5z"/>
<path d="M3970 4692 c0 -5 7 -9 15 -9 8 0 12 4 9 9 -3 4 -9 8 -15 8 -5 0 -9
-4 -9 -8z"/>
<path d="M4030 4689 c0 -5 5 -7 10 -4 6 3 10 8 10 11 0 2 -4 4 -10 4 -5 0 -10
-5 -10 -11z"/>
<path d="M5244 4689 c-3 -6 -2 -15 4 -21 6 -6 12 -6 17 3 6 8 4 10 -5 4 -10
-6 -12 -4 -7 8 7 19 2 23 -9 6z"/>
<path d="M5610 4696 c0 -2 7 -7 16 -10 8 -3 12 -2 9 4 -6 10 -25 14 -25 6z"/>
<path d="M5556 4677 c3 -10 9 -15 12 -12 3 3 0 11 -7 18 -10 9 -11 8 -5 -6z"/>
<path d="M4593 4665 c0 -8 4 -12 9 -9 4 3 8 9 8 15 0 5 -4 9 -8 9 -5 0 -9 -7
-9 -15z"/>
<path d="M4750 4670 c0 -5 5 -10 10 -10 6 0 10 5 10 10 0 6 -4 10 -10 10 -5 0
-10 -4 -10 -10z"/>
<path d="M5155 4649 c-1 -31 7 -30 12 1 1 10 -1 21 -5 24 -4 2 -7 -9 -7 -25z"/>
<path d="M3909 4653 c-7 -10 -10 -15 -5 -11 5 4 18 2 30 -4 11 -6 18 -7 14 -3
-4 4 0 14 10 22 15 13 15 13 -5 4 -27 -14 -36 -14 -28 -1 10 17 -2 11 -16 -7z"/>
<path d="M4036 4655 c23 -17 34 -19 34 -4 0 5 -4 8 -9 4 -5 -3 -12 -1 -16 5
-3 5 -11 10 -18 10 -6 0 -2 -7 9 -15z"/>
<path d="M4485 4660 c-16 -7 -17 -9 -3 -9 9 -1 20 4 23 9 7 11 7 11 -20 0z"/>
<path d="M4687 4656 c-4 -9 -3 -15 2 -11 5 3 11 0 13 -7 3 -7 7 -5 11 6 4 9 3
15 -2 11 -5 -3 -11 0 -13 7 -3 7 -7 5 -11 -6z"/>
<path d="M5530 4660 c-8 -5 -12 -12 -9 -15 4 -3 12 1 19 10 14 17 11 19 -10 5z"/>
<path d="M4365 4650 c3 -5 8 -10 11 -10 2 0 4 5 4 10 0 6 -5 10 -11 10 -5 0
-7 -4 -4 -10z"/>
<path d="M4524 4649 c-4 -7 -3 -9 4 -5 5 3 13 0 15 -6 4 -9 6 -10 6 -1 1 17
-16 25 -25 12z"/>
<path d="M5573 4647 c-4 -6 -1 -7 7 -2 9 6 12 4 8 -6 -4 -10 1 -15 12 -15 11
0 16 5 12 15 -4 10 -1 12 9 6 8 -4 11 -4 6 0 -11 12 -47 13 -54 2z"/>
<path d="M4106 4633 c-6 -14 -5 -15 5 -6 7 7 10 15 7 18 -3 3 -9 -2 -12 -12z"/>
<path d="M4750 4631 c0 -6 4 -13 10 -16 6 -3 7 1 4 9 -7 18 -14 21 -14 7z"/>
<path d="M4140 4623 c0 -7 5 -15 10 -18 6 -4 8 -11 5 -16 -4 -5 -1 -9 4 -9 15
0 13 11 -4 34 -8 11 -15 15 -15 9z"/>
<path d="M4177 4619 c7 -7 15 -10 18 -7 3 3 -2 9 -12 12 -14 6 -15 5 -6 -5z"/>
<path d="M4577 4614 c2 -7 11 -10 19 -7 19 7 18 10 -5 16 -13 3 -18 1 -14 -9z"/>
<path d="M4730 4621 c0 -7 -4 -9 -10 -6 -5 3 -10 1 -10 -4 0 -6 4 -11 9 -11
13 0 25 20 17 27 -3 4 -6 1 -6 -6z"/>
<path d="M5537 4614 c2 -7 11 -10 19 -7 19 7 18 10 -5 16 -13 3 -18 1 -14 -9z"/>
<path d="M3947 4601 c-4 -17 -3 -21 5 -13 5 5 8 16 6 23 -3 8 -7 3 -11 -10z"/>
<path d="M4064 4605 c-18 -14 -18 -14 4 -8 12 3 22 9 22 14 0 12 -3 11 -26 -6z"/>
<path d="M4347 4601 c-3 -13 -1 -18 9 -14 7 2 10 11 7 19 -7 19 -10 18 -16 -5z"/>
<path d="M4401 4598 c5 -10 11 -18 12 -18 2 0 3 8 3 18 0 10 -6 19 -13 19 -8
0 -9 -6 -2 -19z"/>
<path d="M4545 4610 c14 -23 15 -42 1 -37 -7 3 -13 -1 -13 -8 0 -8 7 -11 15
-7 11 4 13 1 7 -9 -5 -8 -4 -11 1 -6 14 13 12 56 -4 70 -13 10 -14 9 -7 -3z"/>
<path d="M4639 4603 c-12 -16 -12 -17 2 -6 9 7 19 10 22 6 4 -3 7 -1 7 5 0 17
-16 15 -31 -5z"/>
<path d="M4105 4570 c0 -15 3 -26 8 -23 4 2 7 13 7 23 0 10 -3 21 -7 23 -5 3
-8 -8 -8 -23z"/>
<path d="M4495 4589 c-6 -8 -4 -10 5 -4 10 6 12 4 6 -11 -6 -15 -5 -17 5 -6 9
9 10 15 2 23 -8 8 -13 7 -18 -2z"/>
<path d="M4675 4591 c-9 -15 15 -25 28 -12 9 9 7 10 -7 5 -13 -5 -17 -4 -12 4
4 7 5 12 2 12 -3 0 -7 -4 -11 -9z"/>
<path d="M4764 4589 c-3 -6 -1 -16 5 -22 9 -9 10 -7 5 7 -6 15 -4 17 6 11 9
-5 11 -4 6 3 -9 15 -13 15 -22 1z"/>
<path d="M5510 4590 c0 -5 5 -10 10 -10 6 0 10 5 10 10 0 6 -4 10 -10 10 -5 0
-10 -4 -10 -10z"/>
<path d="M3910 4583 c5 -2 8 -9 4 -14 -3 -5 0 -9 6 -9 15 0 7 23 -8 26 -7 1
-8 0 -2 -3z"/>
<path d="M4034 4570 c0 -13 4 -16 10 -10 7 7 7 13 0 20 -6 6 -10 3 -10 -10z"/>
<path d="M4290 4584 c0 -7 52 -25 57 -20 2 2 -10 8 -26 14 -17 6 -31 9 -31 6z"/>
<path d="M3970 4571 c0 -4 11 -8 25 -9 14 -1 25 2 25 6 0 4 -11 8 -25 8 -14 1
-25 -1 -25 -5z"/>
<path d="M4273 4562 c0 -12 5 -22 9 -22 11 0 10 12 -2 30 -7 12 -9 10 -7 -8z"/>
<path d="M4615 4570 c3 -5 8 -10 11 -10 2 0 4 5 4 10 0 6 -5 10 -11 10 -5 0
-7 -4 -4 -10z"/>
<path d="M4724 4564 c-18 -14 -18 -15 4 -4 12 6 22 13 22 15 0 8 -5 6 -26 -11z"/>
<path d="M5553 4563 c-3 -7 -10 -10 -16 -6 -6 4 -7 1 -2 -7 6 -10 11 -10 20 3
7 9 14 14 17 11 4 -3 8 -1 12 4 3 5 -2 9 -10 9 -9 0 -18 -6 -21 -14z"/>
<path d="M5599 4565 c-1 -3 -2 -8 -3 -12 -1 -5 -4 -13 -8 -19 -4 -6 -1 -11 5
-11 7 0 13 11 13 24 0 21 -4 31 -7 18z"/>
<path d="M3934 4548 c-5 -7 -2 -8 6 -3 10 6 12 4 6 -10 -5 -15 -4 -16 9 -5 19
15 19 16 0 23 -8 4 -17 1 -21 -5z"/>
<path d="M4155 4551 c3 -5 1 -12 -5 -16 -5 -3 -10 -11 -10 -18 0 -6 7 -2 15 9
17 23 19 34 4 34 -5 0 -8 -4 -4 -9z"/>
<path d="M4398 4553 c7 -3 16 -2 19 1 4 3 -2 6 -13 5 -11 0 -14 -3 -6 -6z"/>
<path d="M4596 4543 c-6 -14 -5 -15 5 -6 7 7 10 15 7 18 -3 3 -9 -2 -12 -12z"/>
<path d="M5510 4553 c0 -6 8 -17 18 -24 16 -13 16 -13 2 6 -8 11 -16 22 -17
24 -2 2 -3 0 -3 -6z"/>
<path d="M4055 4540 c3 -4 14 -10 25 -13 11 -3 18 -2 15 3 -3 4 -14 10 -25 13
-11 3 -18 2 -15 -3z"/>
<path d="M4620 4543 c0 -7 5 -15 10 -18 6 -4 8 -11 5 -16 -4 -5 -1 -9 4 -9 15
0 13 11 -4 34 -8 11 -15 15 -15 9z"/>
<path d="M5159 4537 c8 -9 16 -15 19 -12 3 3 12 -1 20 -8 11 -8 14 -8 9 0 -4
6 -1 14 5 17 7 2 2 3 -12 2 -14 -2 -32 2 -40 8 -13 10 -13 9 -1 -7z"/>
<path d="M4244 4525 c-4 -8 -10 -12 -15 -9 -5 3 -6 -2 -3 -11 7 -18 7 -18 23
13 6 12 9 22 6 22 -3 0 -8 -7 -11 -15z"/>
<path d="M4116 4517 c3 -10 9 -15 12 -12 3 3 0 11 -7 18 -10 9 -11 8 -5 -6z"/>
<path d="M4176 4521 c-4 -5 3 -7 14 -4 23 6 26 13 6 13 -8 0 -17 -4 -20 -9z"/>
<path d="M4310 4526 c0 -2 9 -6 20 -9 11 -3 18 -1 14 4 -5 9 -34 13 -34 5z"/>
<path d="M3993 4505 c0 -8 4 -12 9 -9 5 3 6 10 3 15 -9 13 -12 11 -12 -6z"/>
<path d="M4587 4499 c4 -13 8 -18 11 -10 2 7 -1 18 -6 23 -8 8 -9 4 -5 -13z"/>
<path d="M4687 4513 c-9 -9 -9 -41 1 -46 4 -3 7 8 7 24 0 16 0 29 -1 29 0 0
-4 -3 -7 -7z"/>
<path d="M5155 4510 c6 -10 4 -12 -11 -6 -15 6 -17 5 -6 -5 9 -9 15 -10 23 -2
8 8 7 13 -2 18 -8 6 -10 4 -4 -5z"/>
<path d="M3937 4491 c-3 -15 -1 -18 11 -14 11 5 13 3 7 -7 -5 -9 -4 -11 4 -6
9 6 9 12 -1 24 -7 10 -13 18 -14 20 -1 1 -4 -6 -7 -17z"/>
<path d="M4275 4500 c-4 -6 -11 -8 -16 -5 -5 4 -9 1 -9 -4 0 -16 16 -13 30 4
7 8 10 15 7 15 -3 0 -9 -5 -12 -10z"/>
<path d="M4308 4503 c7 -3 16 -2 19 1 4 3 -2 6 -13 5 -11 0 -14 -3 -6 -6z"/>
<path d="M4353 4493 c-3 -10 -8 -22 -11 -27 -3 -5 0 -6 5 -3 11 7 25 47 17 47
-3 0 -7 -8 -11 -17z"/>
<path d="M5517 4504 c-3 -3 -3 -13 0 -22 4 -10 2 -13 -5 -8 -8 5 -10 1 -5 -10
4 -11 8 -13 11 -6 2 7 8 9 14 6 6 -4 6 1 -1 13 -6 11 -7 23 -4 27 3 3 4 6 1 6
-2 0 -7 -3 -11 -6z"/>
<path d="M5580 4501 c0 -6 4 -13 10 -16 6 -3 7 1 4 9 -7 18 -14 21 -14 7z"/>
<path d="M4039 4483 c-12 -16 -12 -17 2 -6 9 7 19 10 22 6 4 -3 7 -1 7 5 0 17
-16 15 -31 -5z"/>
<path d="M4166 4487 c3 -10 9 -15 12 -12 3 3 0 11 -7 18 -10 9 -11 8 -5 -6z"/>
<path d="M4490 4490 c0 -5 5 -10 10 -10 6 0 10 5 10 10 0 6 -4 10 -10 10 -5 0
-10 -4 -10 -10z"/>
<path d="M5470 4488 c0 -4 4 -8 9 -8 6 0 12 4 15 8 3 5 -1 9 -9 9 -8 0 -15 -4
-15 -9z"/>
<path d="M4077 4477 c-3 -8 1 -14 8 -14 7 0 11 6 8 14 -3 7 -6 13 -8 13 -2 0
-5 -6 -8 -13z"/>
<path d="M4630 4473 c1 -13 30 -48 30 -36 0 7 -5 15 -10 18 -6 4 -8 11 -5 16
4 5 1 9 -4 9 -6 0 -11 -3 -11 -7z"/>
<path d="M5195 4471 c-3 -5 0 -13 6 -17 7 -4 9 -3 5 4 -3 5 0 13 6 15 9 4 10
6 1 6 -6 1 -14 -3 -18 -8z"/>
<path d="M5451 4475 c1 -19 18 -51 18 -35 0 8 -4 22 -9 30 -5 8 -9 11 -9 5z"/>
<path d="M5556 4463 c-6 -14 -5 -15 5 -6 7 7 10 15 7 18 -3 3 -9 -2 -12 -12z"/>
<path d="M3960 4445 c-19 -22 -8 -25 13 -3 9 10 13 18 8 18 -5 0 -14 -7 -21
-15z"/>
<path d="M4162 4448 c-15 -15 -15 -28 0 -28 6 0 8 3 5 7 -4 3 -2 12 4 20 14
16 7 17 -9 1z"/>
<path d="M4227 4449 c7 -7 15 -10 18 -7 3 3 -2 9 -12 12 -14 6 -15 5 -6 -5z"/>
<path d="M4385 4449 c-4 -6 -4 -13 -1 -16 3 -4 6 -1 6 6 0 7 5 9 10 6 6 -3 10
-1 10 4 0 14 -17 14 -25 0z"/>
<path d="M4705 4450 c-3 -6 1 -7 9 -4 18 7 21 14 7 14 -6 0 -13 -4 -16 -10z"/>
<path d="M5137 4446 c-4 -10 1 -12 14 -9 23 6 24 9 5 16 -8 3 -17 0 -19 -7z"/>
<path d="M4055 4441 c-3 -5 0 -13 6 -17 8 -5 9 -3 4 6 -6 10 -4 12 9 7 10 -4
15 -3 11 3 -8 13 -22 13 -30 1z"/>
<path d="M4470 4446 c0 -2 9 -6 20 -9 11 -3 18 -1 14 4 -5 9 -34 13 -34 5z"/>
<path d="M3986 4427 c3 -10 9 -15 12 -12 3 3 0 11 -7 18 -10 9 -11 8 -5 -6z"/>
<path d="M4201 4423 c-5 -10 -13 -17 -18 -15 -4 2 -8 -1 -9 -7 -2 -7 -1 -8 3
-1 2 5 9 8 13 5 5 -3 14 4 20 15 13 24 5 27 -9 3z"/>
<path d="M4315 4431 c6 -11 4 -13 -8 -8 -23 9 -21 0 2 -13 15 -7 19 -7 17 5
-1 8 -6 18 -11 22 -4 5 -5 2 0 -6z"/>
<path d="M5110 4431 c0 -6 4 -13 10 -16 6 -3 7 1 4 9 -7 18 -14 21 -14 7z"/>
<path d="M5186 4426 c5 -13 4 -17 -4 -12 -15 9 -26 -14 -13 -27 9 -9 10 -7 5
7 -5 13 -4 17 4 12 15 -9 26 14 13 27 -9 9 -10 7 -5 -7z"/>
<path d="M4713 4415 c0 -7 6 -11 14 -8 7 3 13 6 13 8 0 2 -6 5 -13 8 -8 3 -14
-1 -14 -8z"/>
<path d="M4605 4407 c-14 -11 -15 -16 -5 -22 9 -6 11 -4 5 5 -6 9 -4 12 7 8 9
-4 15 0 15 8 0 17 1 17 -22 1z"/>
<path d="M4055 4400 c-4 -6 1 -7 11 -3 13 5 15 3 9 -7 -5 -9 -4 -11 4 -6 6 4
9 12 6 17 -8 12 -22 12 -30 -1z"/>
<path d="M4480 4406 c0 -2 7 -7 16 -10 8 -3 12 -2 9 4 -6 10 -25 14 -25 6z"/>
<path d="M5477 4403 c-10 -9 -9 -23 1 -23 5 0 9 7 9 15 0 17 -1 18 -10 8z"/>
<path d="M4390 4389 c0 -5 5 -7 10 -4 6 3 10 8 10 11 0 2 -4 4 -10 4 -5 0 -10
-5 -10 -11z"/>
<path d="M4550 4395 c0 -13 20 -35 32 -35 4 0 8 5 8 11 0 5 -4 8 -9 4 -6 -3
-14 3 -20 12 -6 10 -11 13 -11 8z"/>
<path d="M5110 4393 c1 -13 30 -48 30 -36 0 7 -5 15 -10 18 -6 4 -8 11 -5 16
4 5 1 9 -4 9 -6 0 -11 -3 -11 -7z"/>
<path d="M5191 4377 c-13 -21 -12 -21 5 -5 10 10 16 20 13 22 -3 3 -11 -5 -18
-17z"/>
<path d="M4629 4373 c-13 -16 -12 -17 4 -4 9 7 17 15 17 17 0 8 -8 3 -21 -13z"/>
<path d="M4037 4366 c-3 -8 0 -17 7 -19 10 -4 12 1 9 14 -6 23 -9 24 -16 5z"/>
<path d="M4085 4370 c-3 -6 1 -7 9 -4 18 7 21 14 7 14 -6 0 -13 -4 -16 -10z"/>
<path d="M4150 4366 c7 -7 13 -7 20 0 6 6 3 10 -10 10 -13 0 -16 -4 -10 -10z"/>
<path d="M4210 4369 c0 -5 5 -7 10 -4 6 3 10 8 10 11 0 2 -4 4 -10 4 -5 0 -10
-5 -10 -11z"/>
<path d="M4507 4361 c-3 -13 -1 -18 9 -14 7 2 10 11 7 19 -7 19 -10 18 -16 -5z"/>
<path d="M4657 4365 c-4 -8 -1 -17 5 -21 7 -5 8 -2 3 6 -6 10 -4 12 10 6 15
-5 16 -4 5 9 -15 19 -16 19 -23 0z"/>
<path d="M4717 4366 c-17 -13 -16 -14 2 -19 15 -3 18 -1 14 11 -5 11 -3 13 7
7 9 -5 11 -4 6 3 -9 14 -7 14 -29 -2z"/>
<path d="M5435 4348 c-11 -24 -12 -28 -2 -16 8 10 17 15 21 11 4 -4 4 1 0 11
-6 15 -4 17 6 11 9 -5 11 -4 6 3 -11 17 -14 15 -31 -20z"/>
<path d="M5494 4368 c-5 -7 -3 -8 6 -3 10 6 12 4 7 -8 -4 -11 -2 -14 9 -10 11
4 12 9 3 19 -14 17 -16 17 -25 2z"/>
<path d="M5155 4359 c-4 -6 -5 -12 -2 -15 2 -3 7 2 10 11 7 17 1 20 -8 4z"/>
<path d="M4094 4349 c-4 -7 -3 -9 4 -5 6 3 13 -2 15 -11 4 -16 5 -16 6 -1 1
21 -15 32 -25 17z"/>
<path d="M4196 4348 c5 -7 2 -9 -7 -6 -10 4 -15 -1 -16 -12 -2 -17 0 -17 17
-3 17 14 19 33 4 33 -3 0 -2 -5 2 -12z"/>
<path d="M4622 4342 c2 -8 7 -13 12 -12 5 1 13 -4 18 -12 8 -11 9 -11 6 0 -2
8 -7 13 -12 12 -5 -1 -13 4 -18 12 -8 11 -9 11 -6 0z"/>
<path d="M5192 4346 c4 -5 3 -16 -2 -26 -6 -12 -5 -17 5 -17 7 0 11 6 8 13 -5
14 14 13 37 -1 13 -8 13 -7 1 8 -8 10 -16 15 -19 12 -3 -3 -12 1 -21 7 -9 7
-13 9 -9 4z"/>
<path d="M5326 4334 c-23 -23 -20 -30 4 -9 11 10 20 20 20 22 0 7 -9 2 -24
-13z"/>
<path d="M4010 4329 c0 -5 4 -8 9 -4 5 3 12 1 16 -5 3 -5 11 -10 18 -10 6 0 2
7 -9 15 -23 17 -34 19 -34 4z"/>
<path d="M4520 4330 c-9 -6 -10 -10 -3 -10 6 0 15 5 18 10 8 12 4 12 -15 0z"/>
<path d="M5460 4330 c-8 -5 -10 -10 -5 -10 6 0 17 5 25 10 8 5 11 10 5 10 -5
0 -17 -5 -25 -10z"/>
<path d="M4190 4311 c0 -6 4 -13 10 -16 6 -3 7 1 4 9 -7 18 -14 21 -14 7z"/>
<path d="M4484 4305 c-4 -8 -9 -13 -13 -11 -4 3 -7 -4 -7 -15 0 -17 2 -18 11
-6 5 8 13 14 17 13 3 -1 10 3 15 8 5 6 2 6 -6 1 -11 -6 -13 -4 -8 8 3 10 4 17
1 17 -2 0 -7 -7 -10 -15z"/>
<path d="M4547 4302 c5 -11 3 -13 -7 -7 -9 5 -11 4 -6 -4 6 -9 12 -9 24 1 10
7 18 13 20 14 1 1 -6 4 -17 7 -15 3 -18 1 -14 -11z"/>
<path d="M4615 4310 c6 -10 4 -12 -8 -7 -21 8 -22 3 -3 -12 10 -9 15 -8 19 3
4 9 1 18 -5 22 -7 5 -8 2 -3 -6z"/>
<path d="M4975 4310 c-3 -6 1 -7 9 -4 18 7 21 14 7 14 -6 0 -13 -4 -16 -10z"/>
<path d="M4756 4295 c4 -8 8 -15 10 -15 2 0 4 7 4 15 0 8 -4 15 -10 15 -5 0
-7 -7 -4 -15z"/>
<path d="M5337 4298 c2 -5 13 -8 23 -8 10 0 21 3 23 8 3 4 -8 7 -23 7 -15 0
-26 -3 -23 -7z"/>
<path d="M4045 4290 c-3 -6 1 -7 9 -4 18 7 21 14 7 14 -6 0 -13 -4 -16 -10z"/>
<path d="M4231 4283 c7 -12 15 -20 18 -17 3 2 -3 12 -13 22 -17 16 -18 16 -5
-5z"/>
<path d="M4639 4283 c-13 -16 -12 -17 4 -4 16 13 21 21 13 21 -2 0 -10 -8 -17
-17z"/>
<path d="M4690 4289 c0 -5 4 -8 9 -4 6 3 14 -3 20 -12 6 -10 11 -13 11 -7 0
12 -20 34 -32 34 -4 0 -8 -5 -8 -11z"/>
<path d="M4985 4289 c-4 -6 -5 -12 -2 -15 2 -3 7 2 10 11 7 17 1 20 -8 4z"/>
<path d="M5195 4280 c-4 -6 1 -7 11 -3 13 5 15 3 9 -7 -5 -9 -4 -11 4 -6 6 4
9 12 6 17 -8 12 -22 12 -30 -1z"/>
<path d="M5448 4283 c6 -2 9 -10 6 -15 -4 -7 -2 -8 5 -4 13 9 5 26 -12 25 -9
0 -8 -2 1 -6z"/>
<path d="M4085 4270 c-9 -14 4 -32 17 -24 8 5 9 1 4 -12 -5 -14 -4 -16 5 -7
13 13 2 36 -13 27 -7 -5 -9 -1 -5 9 7 19 2 23 -8 7z"/>
<path d="M4201 4263 c-5 -10 -13 -17 -18 -15 -4 2 -8 -1 -9 -7 -2 -7 -1 -8 3
-1 2 5 9 8 13 5 5 -3 14 4 20 15 13 24 5 27 -9 3z"/>
<path d="M4510 4271 c0 -6 4 -12 8 -15 5 -3 9 1 9 9 0 8 -4 15 -9 15 -4 0 -8
-4 -8 -9z"/>
<path d="M4675 4271 c6 -11 4 -13 -8 -8 -23 9 -21 0 2 -13 15 -7 19 -7 17 5
-1 8 -6 18 -11 22 -4 5 -5 2 0 -6z"/>
<path d="M4262 4250 c0 -14 2 -19 5 -12 2 6 2 18 0 25 -3 6 -5 1 -5 -13z"/>
<path d="M4777 4259 c7 -7 15 -10 18 -7 3 3 -2 9 -12 12 -14 6 -15 5 -6 -5z"/>
<path d="M4948 4263 c7 -3 16 -2 19 1 4 3 -2 6 -13 5 -11 0 -14 -3 -6 -6z"/>
<path d="M5014 4260 c1 -7 6 -12 11 -12 6 -1 16 -8 23 -17 11 -14 11 -13 2 7
-6 12 -15 20 -20 17 -4 -3 -11 0 -13 5 -4 7 -5 6 -3 0z"/>
<path d="M5100 4263 c0 -6 8 -17 18 -24 16 -13 16 -13 2 6 -8 11 -16 22 -17
24 -2 2 -3 0 -3 -6z"/>
<path d="M5229 4253 c-13 -16 -12 -17 4 -4 9 7 17 15 17 17 0 8 -8 3 -21 -13z"/>
<path d="M5315 4258 c25 -15 47 -19 39 -7 -3 5 -9 7 -14 4 -5 -3 -11 -1 -15 5
-3 5 -12 10 -18 10 -7 0 -3 -6 8 -12z"/>
<path d="M4555 4250 c-3 -5 -1 -10 4 -10 6 0 11 5 11 10 0 6 -2 10 -4 10 -3 0
-8 -4 -11 -10z"/>
<path d="M4627 4241 c-3 -13 -1 -18 9 -14 7 2 10 11 7 19 -7 19 -10 18 -16 -5z"/>
<path d="M4735 4249 c-4 -6 -4 -13 -1 -16 3 -4 6 -1 6 6 0 7 5 9 12 5 7 -4 8
-3 4 4 -9 15 -13 15 -21 1z"/>
<path d="M4990 4251 c0 -6 4 -13 10 -16 6 -3 7 1 4 9 -7 18 -14 21 -14 7z"/>
<path d="M5152 4251 c-11 -7 -11 -9 0 -14 9 -3 15 1 15 9 0 8 -1 14 -1 14 -1
0 -7 -4 -14 -9z"/>
<path d="M5257 4246 c-4 -10 1 -12 14 -9 23 6 24 9 5 16 -8 3 -17 0 -19 -7z"/>
<path d="M5371 4257 c2 -1 13 -9 24 -17 19 -14 19 -14 6 3 -7 9 -18 17 -24 17
-6 0 -8 -1 -6 -3z"/>
<path d="M4798 4222 c4 -11 1 -13 -8 -7 -9 5 -11 4 -6 -3 10 -16 14 -15 25 6
7 14 6 19 -4 19 -7 0 -11 -7 -7 -15z"/>
<path d="M4866 4226 c6 -15 4 -17 -6 -11 -9 6 -11 4 -5 -4 5 -9 10 -10 18 -2
8 8 7 14 -2 24 -10 10 -11 8 -5 -7z"/>
<path d="M4922 4231 c-10 -6 -10 -10 2 -20 11 -9 16 -9 22 0 5 8 3 9 -6 4 -10
-6 -12 -4 -7 8 7 19 7 20 -11 8z"/>
<path d="M5307 4219 c6 -23 9 -24 16 -5 3 8 0 17 -7 19 -10 4 -12 -1 -9 -14z"/>
<path d="M5360 4221 c-7 -15 -7 -19 5 -17 8 1 18 6 22 11 5 4 2 5 -6 0 -11 -6
-13 -4 -8 8 9 23 0 21 -13 -2z"/>
<path d="M4578 4218 c5 -5 16 -8 23 -6 8 3 3 7 -10 11 -17 4 -21 3 -13 -5z"/>
<path d="M4970 4220 c-9 -6 -10 -10 -3 -10 6 0 15 5 18 10 8 12 4 12 -15 0z"/>
<path d="M4145 4209 c-4 -6 -4 -13 -1 -16 3 -4 6 -1 6 6 0 7 5 9 10 6 6 -3 10
-1 10 4 0 14 -17 14 -25 0z"/>
<path d="M4210 4212 c0 -5 7 -9 15 -9 8 0 12 4 9 9 -3 4 -9 8 -15 8 -5 0 -9
-4 -9 -8z"/>
<path d="M4267 4203 c5 -12 3 -14 -7 -8 -8 5 -11 4 -6 -3 4 -6 13 -9 22 -5 11
4 12 9 3 19 -15 19 -20 18 -12 -3z"/>
<path d="M4525 4210 c-3 -5 -1 -10 4 -10 6 0 11 5 11 10 0 6 -2 10 -4 10 -3 0
-8 -4 -11 -10z"/>
<path d="M4639 4203 c-13 -16 -12 -17 4 -4 16 13 21 21 13 21 -2 0 -10 -8 -17
-17z"/>
<path d="M4710 4206 c7 -7 13 -7 20 0 6 6 3 10 -10 10 -13 0 -16 -4 -10 -10z"/>
<path d="M5007 4209 c7 -7 15 -10 18 -7 3 3 -2 9 -12 12 -14 6 -15 5 -6 -5z"/>
<path d="M5170 4208 c0 -11 12 -10 30 2 12 7 10 9 -8 7 -12 0 -22 -5 -22 -9z"/>
<path d="M5237 4206 c-3 -8 0 -17 7 -19 10 -4 12 1 9 14 -6 23 -9 24 -16 5z"/>
<path d="M5399 4203 c-13 -16 -12 -17 4 -4 9 7 17 15 17 17 0 8 -8 3 -21 -13z"/>
<path d="M4100 4196 c0 -2 7 -6 15 -10 8 -3 15 -1 15 4 0 6 -7 10 -15 10 -8 0
-15 -2 -15 -4z"/>
<path d="M4195 4190 c6 -10 4 -12 -11 -6 -15 6 -17 5 -6 -5 9 -9 15 -10 23 -2
8 8 7 13 -2 18 -8 6 -10 4 -4 -5z"/>
<path d="M4355 4191 c3 -6 -3 -14 -12 -20 -10 -6 -13 -11 -7 -11 12 0 34 20
34 32 0 4 -5 8 -11 8 -5 0 -8 -4 -4 -9z"/>
<path d="M4553 4185 c0 -8 4 -12 9 -9 4 3 8 9 8 15 0 5 -4 9 -8 9 -5 0 -9 -7
-9 -15z"/>
<path d="M4666 4186 c6 -15 4 -17 -6 -11 -9 6 -11 4 -5 -4 5 -9 10 -10 18 -2
8 8 7 14 -2 24 -10 10 -11 8 -5 -7z"/>
<path d="M4830 4191 c0 -6 4 -12 8 -15 5 -3 9 1 9 9 0 8 -4 15 -9 15 -4 0 -8
-4 -8 -9z"/>
<path d="M5030 4190 c-9 -6 -10 -10 -3 -10 6 0 15 5 18 10 8 12 4 12 -15 0z"/>
<path d="M4896 4174 c-4 -9 -4 -19 -1 -22 3 -3 5 0 5 7 0 7 4 9 10 6 6 -3 7 1
4 9 -8 20 -10 20 -18 0z"/>
<path d="M4995 4181 c-3 -6 -15 -8 -27 -6 -11 3 -18 1 -14 -2 12 -13 35 -11
47 3 6 8 9 14 6 14 -3 0 -8 -4 -12 -9z"/>
<path d="M5121 4167 c-13 -21 -12 -21 5 -5 10 10 16 20 13 22 -3 3 -11 -5 -18
-17z"/>
<path d="M5285 4180 c-16 -7 -17 -9 -3 -9 9 -1 20 4 23 9 7 11 7 11 -20 0z"/>
<path d="M4395 4170 c-3 -5 -1 -10 4 -10 6 0 11 5 11 10 0 6 -2 10 -4 10 -3 0
-8 -4 -11 -10z"/>
<path d="M4595 4170 c-3 -5 -1 -10 4 -10 6 0 11 5 11 10 0 6 -2 10 -4 10 -3 0
-8 -4 -11 -10z"/>
<path d="M5071 4164 c0 -11 3 -14 6 -6 3 7 2 16 -1 19 -3 4 -6 -2 -5 -13z"/>
<path d="M5220 4170 c8 -5 20 -10 25 -10 6 0 3 5 -5 10 -8 5 -19 10 -25 10 -5
0 -3 -5 5 -10z"/>
<path d="M5324 4169 c-4 -7 -3 -9 4 -5 5 3 13 0 15 -6 4 -9 6 -10 6 -1 1 17
-16 25 -25 12z"/>
<path d="M4466 4154 c-5 -14 -4 -15 9 -4 17 14 19 20 6 20 -5 0 -12 -7 -15
-16z"/>
<path d="M4242 4151 c-10 -6 -10 -10 3 -21 13 -11 14 -10 9 5 -6 14 -4 16 6
10 9 -5 11 -4 6 3 -8 14 -7 14 -24 3z"/>
<path d="M4308 4153 c6 -2 10 -9 7 -14 -4 -5 1 -6 10 -2 13 5 14 7 3 14 -7 5
-17 8 -23 8 -5 0 -4 -3 3 -6z"/>
<path d="M5003 4152 c-7 -4 -9 -13 -4 -21 6 -9 10 -7 14 8 3 12 4 21 4 21 -1
0 -7 -4 -14 -8z"/>
<path d="M5198 4152 c-17 -7 -17 -8 2 -19 14 -9 21 -10 26 -1 5 7 3 8 -6 3
-10 -6 -12 -4 -7 8 3 10 5 17 4 16 -1 0 -10 -4 -19 -7z"/>
<path d="M4417 4134 c2 -7 11 -10 19 -7 19 7 18 10 -5 16 -13 3 -18 1 -14 -9z"/>
<path d="M4830 4146 c0 -2 7 -9 15 -16 9 -7 15 -8 15 -2 0 5 -7 12 -15 16 -8
3 -15 4 -15 2z"/>
<path d="M5137 4134 c2 -7 11 -10 19 -7 19 7 18 10 -5 16 -13 3 -18 1 -14 -9z"/>
<path d="M4180 4131 c0 -9 30 -24 36 -18 2 1 -6 8 -16 15 -11 7 -20 8 -20 3z"/>
<path d="M4361 4126 c-9 -11 -9 -16 0 -22 8 -5 9 -3 4 6 -6 10 -4 12 8 7 11
-4 14 -2 10 9 -6 17 -8 17 -22 0z"/>
<path d="M4613 4127 c-3 -6 -1 -7 5 -3 5 3 12 1 14 -6 3 -8 6 -7 10 3 7 17
-19 22 -29 6z"/>
<path d="M4879 4123 c-13 -16 -12 -17 4 -4 16 13 21 21 13 21 -2 0 -10 -8 -17
-17z"/>
<path d="M4930 4132 c0 -4 10 -9 22 -9 18 -2 20 0 8 7 -18 12 -30 13 -30 2z"/>
<path d="M5046 4128 c3 -4 9 -8 15 -8 5 0 9 4 9 8 0 5 -7 9 -15 9 -8 0 -12 -4
-9 -9z"/>
<path d="M4475 4121 c-6 -11 13 -26 22 -17 4 3 1 6 -6 6 -7 0 -9 5 -6 10 3 6
4 10 1 10 -3 0 -7 -4 -11 -9z"/>
<path d="M4273 4098 c-2 -18 0 -20 7 -8 12 18 13 30 2 30 -4 0 -9 -10 -9 -22z"/>
<path d="M4786 4111 c-4 -5 3 -7 14 -4 23 6 26 13 6 13 -8 0 -17 -4 -20 -9z"/>
<path d="M4895 4111 c-9 -15 15 -25 28 -12 9 9 7 10 -7 5 -13 -5 -17 -4 -12 4
4 7 5 12 2 12 -3 0 -7 -4 -11 -9z"/>
<path d="M5035 4110 c6 -10 4 -12 -11 -6 -15 6 -17 5 -6 -5 9 -9 15 -10 23 -2
8 8 7 13 -2 18 -8 6 -10 4 -4 -5z"/>
<path d="M5233 4105 c0 -8 4 -12 9 -9 4 3 8 9 8 15 0 5 -4 9 -8 9 -5 0 -9 -7
-9 -15z"/>
<path d="M4316 4085 c-9 -26 -7 -32 5 -12 6 10 9 21 6 23 -2 3 -7 -2 -11 -11z"/>
<path d="M4390 4089 c0 -5 5 -7 10 -4 6 3 10 8 10 11 0 2 -4 4 -10 4 -5 0 -10
-5 -10 -11z"/>
<path d="M4442 4088 c-15 -15 -15 -28 -1 -28 5 0 8 4 4 9 -3 6 3 14 12 20 10
6 13 11 8 11 -6 0 -16 -5 -23 -12z"/>
<path d="M5178 4093 c6 -2 12 -9 12 -14 0 -6 -5 -7 -12 -3 -7 5 -8 3 -3 -5 5
-9 11 -9 17 -3 12 12 2 32 -15 31 -9 0 -9 -2 1 -6z"/>
<path d="M4840 4086 c0 -2 7 -7 16 -10 8 -3 12 -2 9 4 -6 10 -25 14 -25 6z"/>
<path d="M4946 4073 c-6 -14 -5 -15 5 -6 7 7 10 15 7 18 -3 3 -9 -2 -12 -12z"/>
<path d="M4997 4083 c-10 -9 -9 -23 1 -23 5 0 9 7 9 15 0 17 -1 18 -10 8z"/>
<path d="M4336 4072 c-2 -4 -1 -14 3 -20 6 -10 11 -9 21 3 11 13 10 14 -5 9
-13 -5 -16 -4 -11 4 4 7 5 12 2 12 -3 0 -7 -4 -10 -8z"/>
<path d="M4763 4065 c-3 -9 -3 -18 -1 -21 3 -3 8 4 11 16 6 23 -1 27 -10 5z"/>
<path d="M4897 4054 c2 -7 11 -10 19 -7 19 7 18 10 -5 16 -13 3 -18 1 -14 -9z"/>
<path d="M5030 4060 c-9 -6 -10 -10 -3 -10 6 0 15 5 18 10 8 12 4 12 -15 0z"/>
<path d="M4285 4050 c-3 -5 -1 -10 4 -10 6 0 11 5 11 10 0 6 -2 10 -4 10 -3 0
-8 -4 -11 -10z"/>
<path d="M4454 4048 c-5 -7 -2 -8 6 -3 9 6 12 4 8 -7 -4 -8 -1 -15 6 -15 17 0
16 25 0 31 -8 3 -16 0 -20 -6z"/>
<path d="M4594 4049 c-4 -7 -3 -9 4 -5 5 3 13 0 15 -6 4 -9 6 -10 6 -1 1 17
-16 25 -25 12z"/>
<path d="M4799 4043 c-12 -16 -12 -17 2 -6 9 7 19 10 22 6 4 -3 7 -1 7 5 0 17
-16 15 -31 -5z"/>
<path d="M4870 4051 c0 -6 4 -13 10 -16 6 -3 7 1 4 9 -7 18 -14 21 -14 7z"/>
<path d="M4392 4041 c-11 -6 -10 -10 4 -15 9 -3 19 -4 22 -1 3 3 0 5 -7 5 -7
0 -9 5 -6 10 7 12 4 12 -13 1z"/>
<path d="M4955 4041 c-6 -11 13 -26 22 -17 4 3 1 6 -6 6 -7 0 -9 5 -6 10 3 6
4 10 1 10 -3 0 -7 -4 -11 -9z"/>
<path d="M4836 4032 c-2 -4 2 -15 9 -25 12 -17 13 -16 18 2 3 15 1 18 -11 14
-10 -4 -13 -2 -8 5 4 7 5 12 2 12 -3 0 -7 -3 -10 -8z"/>
<path d="M5037 4023 c3 -7 6 -13 8 -13 2 0 5 6 8 13 3 8 -1 14 -8 14 -7 0 -11
-6 -8 -14z"/>
<path d="M5110 4015 c-7 -13 -18 -22 -23 -18 -6 4 -7 1 -2 -7 6 -10 11 -10 20
3 7 9 14 15 16 12 3 -2 5 5 6 15 2 26 -1 25 -17 -5z"/>
<path d="M4430 4026 c0 -2 8 -10 18 -17 15 -13 16 -12 3 4 -13 16 -21 21 -21
13z"/>
<path d="M4533 4015 c0 -7 6 -11 14 -8 7 3 13 6 13 8 0 2 -6 5 -13 8 -8 3 -14
-1 -14 -8z"/>
<path d="M4736 4014 c-4 -9 -4 -19 -1 -22 3 -3 5 0 5 7 0 7 4 9 10 6 6 -3 7 1
4 9 -8 20 -10 20 -18 0z"/>
<path d="M4770 4026 c0 -3 9 -10 20 -16 11 -6 20 -8 20 -6 0 3 -9 10 -20 16
-11 6 -20 8 -20 6z"/>
<path d="M4994 4010 c0 -13 4 -16 10 -10 7 7 7 13 0 20 -6 6 -10 3 -10 -10z"/>
<path d="M4506 4006 c6 -15 4 -17 -6 -11 -9 6 -11 4 -5 -4 5 -9 10 -10 18 -2
8 8 7 14 -2 24 -10 10 -11 8 -5 -7z"/>
<path d="M4574 4005 c1 -8 6 -18 11 -22 4 -5 5 -2 0 6 -6 11 -4 13 8 8 23 -9
21 0 -2 13 -15 7 -19 7 -17 -5z"/>
<path d="M4916 4004 c-8 -20 -8 -24 2 -24 4 0 8 9 9 20 2 24 -3 26 -11 4z"/>
<path d="M4427 3985 c3 -8 9 -12 14 -9 12 7 11 11 -5 17 -10 4 -13 1 -9 -8z"/>
<path d="M4635 3980 c-4 -6 -11 -8 -16 -5 -5 4 -9 1 -9 -4 0 -15 11 -13 34 4
11 8 15 15 9 15 -7 0 -15 -5 -18 -10z"/>
<path d="M4476 3972 c-3 -5 1 -9 9 -9 8 0 12 4 9 9 -3 4 -7 8 -9 8 -2 0 -6 -4
-9 -8z"/>
<path d="M4546 3972 c-2 -4 4 -8 14 -8 10 0 16 4 14 8 -3 4 -9 8 -14 8 -5 0
-11 -4 -14 -8z"/>
<path d="M4682 3971 c-11 -6 -9 -9 6 -13 15 -4 19 -2 15 8 -6 16 -4 16 -21 5z"/>
<path d="M4770 3972 c0 -5 7 -9 15 -9 8 0 12 4 9 9 -3 4 -9 8 -15 8 -5 0 -9
-4 -9 -8z"/>
<path d="M4841 3966 c-9 -10 -8 -15 3 -19 11 -4 13 -1 9 10 -5 12 -3 14 7 8 9
-5 11 -4 6 3 -9 15 -11 15 -25 -2z"/>
<path d="M4935 3969 c-6 -8 -4 -10 5 -4 10 6 12 4 6 -11 -6 -15 -5 -17 5 -6 9
9 10 15 2 23 -8 8 -13 7 -18 -2z"/>
<path d="M4970 3976 c0 -2 7 -7 16 -10 8 -3 12 -2 9 4 -6 10 -25 14 -25 6z"/>
<path d="M5015 3960 c-3 -6 1 -7 9 -4 18 7 21 14 7 14 -6 0 -13 -4 -16 -10z"/>
<path d="M4760 3941 c0 -6 4 -13 10 -16 6 -3 7 1 4 9 -7 18 -14 21 -14 7z"/>
<path d="M4866 3935 c-11 -8 -16 -15 -10 -15 5 0 18 7 28 15 11 8 16 15 10 15
-5 0 -18 -7 -28 -15z"/>
<path d="M4636 3931 c-3 -4 6 -7 19 -7 14 0 22 2 19 5 -8 8 -34 10 -38 2z"/>
<path d="M1109 5368 c-1 -7 0 -17 1 -23 3 -11 1 -56 -4 -90 -4 -35 -38 -115
-46 -110 -5 3 -11 -1 -13 -7 -4 -10 -6 -10 -6 0 -1 6 -8 12 -17 12 -13 0 -14
-3 -5 -14 10 -11 9 -16 -4 -23 -14 -8 -14 -11 4 -27 19 -17 19 -24 4 -63 -3
-10 -7 -22 -9 -28 -1 -5 -14 -41 -29 -80 -15 -38 -38 -101 -51 -140 -14 -38
-28 -77 -31 -85 -3 -8 -8 -19 -9 -25 -32 -96 -105 -299 -118 -327 -19 -43 -20
-52 -6 -43 6 3 10 -2 10 -12 0 -34 27 9 45 72 9 33 30 103 47 156 29 94 31 96
74 116 24 11 41 16 37 10 -4 -6 4 -7 23 -2 16 5 54 9 84 9 45 1 55 4 58 19 4
17 -4 19 -95 17 -139 -4 -136 -4 -122 22 7 13 16 36 20 53 4 16 17 55 29 85
12 30 25 66 30 80 5 14 18 50 30 80 12 30 22 61 23 68 0 7 12 15 26 18 14 3
42 12 61 19 38 15 85 29 85 26 0 -1 13 3 29 9 16 6 62 20 103 30 40 11 107 29
148 40 41 11 91 23 111 26 20 3 46 8 58 10 11 2 44 7 71 10 28 4 53 8 56 10
14 8 206 18 344 17 117 -1 168 -5 234 -22 46 -12 86 -21 89 -21 3 0 -1 -6 -9
-12 -37 -30 -235 -293 -329 -436 -14 -22 -18 -23 -80 -13 -72 12 -102 35 -92
73 5 21 4 22 -11 9 -14 -11 -17 -11 -17 0 0 8 -6 3 -13 -11 -12 -22 -11 -29 5
-53 29 -41 65 -55 127 -50 42 3 52 1 48 -10 -7 -18 -182 -253 -215 -290 -14
-15 -28 -23 -32 -18 -3 6 -21 5 -46 -1 -45 -12 -71 -7 -80 17 -6 15 -1 31 48
162 20 56 21 64 8 78 -14 13 -20 13 -55 -6 -22 -12 -61 -39 -88 -61 -50 -42
-53 -32 -10 32 23 35 32 77 13 65 -5 -3 -10 -1 -10 5 0 6 -5 8 -10 5 -6 -4 -8
-11 -5 -16 4 -5 3 -9 -2 -9 -4 0 -20 -24 -36 -53 -29 -54 -134 -173 -201 -226
-39 -31 -63 -33 -93 -9 -10 8 -6 18 17 44 42 49 60 87 53 115 -10 39 -37 74
-58 77 -62 8 -82 7 -107 -2 -16 -6 -28 -16 -28 -23 0 -7 -13 -27 -28 -45 -43
-50 -70 -99 -76 -139 -5 -31 -2 -37 22 -50 31 -18 108 -17 141 1 19 10 26 9
44 -8 13 -12 39 -22 62 -23 39 -3 44 1 123 82 78 79 82 81 62 42 -11 -24 -24
-43 -29 -43 -16 0 -31 -50 -21 -71 6 -10 13 -19 15 -19 2 0 23 33 46 73 23 39
61 91 83 115 39 41 121 102 137 102 5 0 -5 -30 -20 -67 -38 -90 -45 -141 -22
-171 19 -26 70 -35 110 -20 15 5 28 4 38 -4 10 -8 17 -8 21 -1 18 27 125 163
129 163 2 0 1 -10 -3 -22 -11 -34 -13 -101 -3 -119 10 -20 34 -30 54 -23 19 8
20 34 0 34 -20 0 -35 32 -29 65 14 78 64 189 111 249 19 23 30 28 90 32 120 8
166 12 243 23 94 13 151 19 215 26 28 2 77 7 110 10 72 7 350 7 385 0 87 -17
126 -31 154 -56 23 -20 36 -25 47 -18 11 8 9 14 -16 34 -16 13 -43 27 -60 31
-16 3 -34 9 -40 13 -33 23 -515 21 -655 -3 -14 -2 -50 -7 -80 -11 -30 -3 -68
-7 -85 -10 -120 -14 -265 -24 -265 -18 0 6 51 76 65 88 6 6 41 53 78 105 37
52 90 124 117 160 27 36 50 73 50 83 0 22 5 22 43 -5 81 -56 98 -99 56 -144
-17 -18 -20 -27 -11 -36 15 -15 45 11 62 51 17 41 -7 91 -62 128 -55 37 -83
48 -192 73 -128 30 -431 27 -621 -6 -16 -2 -57 -9 -90 -15 -33 -5 -107 -21
-165 -34 -58 -13 -117 -26 -132 -29 -15 -2 -31 -7 -36 -10 -27 -17 -252 -64
-252 -53 0 3 7 21 15 41 9 20 13 41 10 46 -4 6 -2 10 3 10 16 0 36 92 27 127
-6 24 -34 32 -36 11z m190 -788 l34 -29 -20 -37 c-10 -20 -29 -44 -41 -52 -21
-14 -23 -12 -42 29 -21 46 -27 115 -10 104 6 -3 10 -1 10 4 0 20 35 10 69 -19z
m-115 -75 c3 -15 15 -38 26 -50 13 -14 17 -25 11 -29 -15 -9 -90 -16 -107 -9
-23 8 -16 45 17 98 33 52 42 50 53 -10z"/>
<path d="M2695 3743 c-60 -24 -113 -48 -117 -51 -4 -4 23 -23 60 -42 37 -19
139 -73 227 -121 88 -47 205 -110 260 -139 55 -29 123 -66 152 -81 l52 -28
296 144 296 145 152 1 c114 1 146 4 127 12 -124 51 -234 129 -267 191 -9 16
-18 12 -90 -47 -309 -249 -619 -285 -853 -99 -50 40 -150 143 -150 155 0 14
-37 4 -145 -40z"/>
<path d="M1733 1572 c-13 -2 -32 -15 -44 -30 -29 -38 -23 -71 50 -251 64 -159
70 -181 47 -200 -20 -17 -46 -3 -46 25 0 13 -4 25 -10 25 -50 6 -55 3 -58 -26
-3 -36 27 -74 61 -76 87 -6 123 9 131 57 9 43 2 66 -60 215 -60 146 -70 184
-55 203 20 24 51 7 51 -28 0 -29 2 -31 36 -32 l36 0 -5 44 c-3 24 -11 50 -19
58 -14 14 -76 23 -115 16z"/>
<path d="M2230 1549 c0 -23 4 -26 28 -24 l28 2 0 -234 c-1 -129 1 -238 4 -243
8 -12 60 -9 61 4 0 6 1 115 2 241 l2 230 25 0 c20 0 25 5 25 25 0 24 -1 25
-87 25 l-88 1 0 -27z"/>
<path d="M2783 1337 c0 -234 0 -240 22 -265 20 -23 30 -27 80 -26 44 1 61 6
78 22 21 21 21 30 21 264 l1 243 -28 -1 c-15 -1 -30 -2 -34 -3 -5 0 -7 -103
-7 -228 1 -128 -2 -233 -8 -240 -5 -6 -17 -10 -26 -8 -9 2 -20 4 -24 4 -4 1
-9 108 -10 238 l-3 237 -31 1 -31 1 0 -239z"/>
<path d="M3383 1573 c-10 -4 -13 -69 -13 -269 l0 -264 75 4 c84 4 124 23 126
59 1 29 1 374 0 409 -1 39 -38 60 -113 62 -35 2 -69 1 -75 -1z m118 -65 c5 -7
8 -99 8 -205 -1 -205 -4 -218 -50 -211 -22 3 -24 33 -19 416 0 19 4 22 27 18
14 -3 30 -11 34 -18z"/>
<path d="M3972 1571 c-5 -3 -9 -123 -8 -266 l1 -260 30 0 30 0 0 264 0 264
-22 2 c-12 1 -26 -1 -31 -4z"/>
<path d="M4446 1559 l-26 -21 2 -231 3 -231 31 -21 c46 -31 134 -22 154 15 9
16 15 298 11 447 -2 60 -117 88 -175 42z m106 -47 c3 -10 4 -106 3 -215 0
-163 -3 -200 -15 -207 -18 -12 -22 -12 -39 -1 -11 7 -13 51 -12 222 1 139 6
216 13 220 16 10 46 -1 50 -19z"/>
<path d="M5069 1572 c-36 -4 -62 -35 -64 -75 -3 -31 32 -136 82 -245 13 -30
29 -74 35 -98 11 -38 10 -46 -4 -61 -14 -13 -20 -14 -32 -3 -9 7 -16 21 -16
31 0 20 -1 21 -43 23 -26 2 -27 0 -23 -37 5 -41 27 -66 61 -67 11 -1 28 -3 38
-5 30 -6 73 14 87 39 19 36 7 87 -56 240 -63 156 -71 188 -51 205 22 18 46 3
49 -32 3 -28 7 -32 36 -33 l34 -1 -5 44 c-2 24 -10 51 -18 58 -15 15 -67 23
-110 17z"/>
<path d="M4261 1444 c0 -11 3 -14 6 -6 3 7 2 16 -1 19 -3 4 -6 -2 -5 -13z"/>
<path d="M2015 1431 c-3 -5 -2 -12 3 -15 5 -3 9 1 9 9 0 17 -3 19 -12 6z"/>
<path d="M2180 1430 c8 -5 20 -10 25 -10 6 0 3 5 -5 10 -8 5 -19 10 -25 10 -5
0 -3 -5 5 -10z"/>
<path d="M3253 1419 c-2 -23 3 -25 10 -4 4 8 3 16 -1 19 -4 3 -9 -4 -9 -15z"/>
<path d="M4230 1431 c0 -6 4 -13 10 -16 6 -3 7 1 4 9 -7 18 -14 21 -14 7z"/>
<path d="M1593 1415 c0 -8 4 -12 9 -9 5 3 6 10 3 15 -9 13 -12 11 -12 -6z"/>
<path d="M2598 1423 c7 -3 16 -2 19 1 4 3 -2 6 -13 5 -11 0 -14 -3 -6 -6z"/>
<path d="M3095 1420 c-4 -6 -11 -7 -17 -4 -7 4 -8 2 -4 -5 6 -9 11 -9 22 0 14
11 18 19 10 19 -3 0 -8 -5 -11 -10z"/>
<path d="M3035 1411 c-3 -5 -2 -12 3 -15 5 -3 9 1 9 9 0 17 -3 19 -12 6z"/>
<path d="M4256 1403 c-6 -14 -5 -15 5 -6 7 7 10 15 7 18 -3 3 -9 -2 -12 -12z"/>
<path d="M4295 1410 c-3 -5 -1 -10 4 -10 6 0 11 5 11 10 0 6 -2 10 -4 10 -3 0
-8 -4 -11 -10z"/>
<path d="M5376 1412 c-3 -4 4 -9 15 -9 23 -2 25 3 4 10 -8 4 -16 3 -19 -1z"/>
<path d="M2055 1390 c-3 -5 -1 -10 4 -10 6 0 11 5 11 10 0 6 -2 10 -4 10 -3 0
-8 -4 -11 -10z"/>
<path d="M2199 1383 c-13 -16 -12 -17 4 -4 16 13 21 21 13 21 -2 0 -10 -8 -17
-17z"/>
<path d="M2515 1390 c-3 -5 -1 -10 4 -10 6 0 11 5 11 10 0 6 -2 10 -4 10 -3 0
-8 -4 -11 -10z"/>
<path d="M3150 1390 c0 -5 5 -10 11 -10 5 0 7 5 4 10 -3 6 -8 10 -11 10 -2 0
-4 -4 -4 -10z"/>
<path d="M1934 1376 c1 -8 5 -18 8 -22 4 -3 5 1 4 10 -1 8 -5 18 -8 22 -4 3
-5 -1 -4 -10z"/>
<path d="M2116 1377 c3 -10 9 -15 12 -12 3 3 0 11 -7 18 -10 9 -11 8 -5 -6z"/>
<path d="M3229 1373 c-13 -16 -12 -17 4 -4 16 13 21 21 13 21 -2 0 -10 -8 -17
-17z"/>
<path d="M3775 1380 c-4 -6 -11 -8 -16 -5 -5 4 -9 1 -9 -4 0 -16 16 -13 30 4
7 8 10 15 7 15 -3 0 -9 -5 -12 -10z"/>
<path d="M4867 1372 c-15 -16 -15 -18 1 -18 10 0 18 8 18 18 0 10 -1 18 -2 18
0 0 -8 -8 -17 -18z"/>
<path d="M2094 1366 c1 -8 5 -18 8 -22 4 -3 5 1 4 10 -1 8 -5 18 -8 22 -4 3
-5 -1 -4 -10z"/>
<path d="M2553 1360 c5 -29 13 -33 13 -5 0 14 -4 25 -8 25 -4 0 -7 -9 -5 -20z"/>
<path d="M3033 1361 c0 -11 5 -18 9 -15 4 3 5 11 1 19 -7 21 -12 19 -10 -4z"/>
<path d="M4809 1367 c6 -8 7 -18 3 -22 -4 -5 -1 -5 6 -1 10 6 10 11 1 22 -6 8
-14 14 -16 14 -3 0 0 -6 6 -13z"/>
<path d="M3095 1361 c-3 -5 -2 -12 3 -15 5 -3 9 1 9 9 0 17 -3 19 -12 6z"/>
<path d="M3780 1350 c-9 -6 -10 -10 -3 -10 6 0 15 5 18 10 8 12 4 12 -15 0z"/>
<path d="M4224 1339 c0 -9 5 -15 11 -12 7 2 12 10 12 17 0 7 -5 13 -12 13 -6
0 -11 -8 -11 -18z"/>
<path d="M4776 1343 c-6 -14 -5 -15 5 -6 7 7 10 15 7 18 -3 3 -9 -2 -12 -12z"/>
<path d="M5430 1350 c0 -5 5 -10 11 -10 5 0 7 5 4 10 -3 6 -8 10 -11 10 -2 0
-4 -4 -4 -10z"/>
<path d="M4915 1340 c-4 -6 -11 -8 -16 -5 -5 4 -9 1 -9 -4 0 -16 16 -13 30 4
7 8 10 15 7 15 -3 0 -9 -5 -12 -10z"/>
<path d="M1920 1330 c-12 -7 -10 -9 7 -7 12 0 19 5 17 9 -6 10 -6 10 -24 -2z"/>
<path d="M2193 1323 c0 -9 4 -10 14 -2 7 6 13 12 13 14 0 1 -6 2 -13 2 -8 0
-14 -6 -14 -14z"/>
<path d="M2520 1330 c-12 -7 -10 -9 7 -7 12 0 19 5 17 9 -6 10 -6 10 -24 -2z"/>
<path d="M3054 1324 c1 -8 4 -15 7 -16 2 -2 3 -1 2 1 -2 2 2 9 7 16 7 8 5 12
-4 12 -8 0 -13 -6 -12 -13z"/>
<path d="M3120 1330 c-9 -6 -10 -10 -3 -10 6 0 15 5 18 10 8 12 4 12 -15 0z"/>
<path d="M5363 1328 c-10 -17 -14 -42 -5 -33 4 4 7 12 7 18 1 7 7 11 14 9 7
-1 10 2 6 8 -8 13 -12 13 -22 -2z"/>
<path d="M2113 1315 c0 -8 4 -12 9 -9 5 3 6 10 3 15 -9 13 -12 11 -12 -6z"/>
<path d="M3275 1310 c6 -30 16 -40 12 -12 -2 12 -6 24 -10 28 -3 4 -4 -4 -2
-16z"/>
<path d="M2614 1306 c1 -8 5 -18 8 -22 4 -3 5 1 4 10 -1 8 -5 18 -8 22 -4 3
-5 -1 -4 -10z"/>
<path d="M3226 1308 c3 -4 9 -8 15 -8 5 0 9 4 9 8 0 5 -7 9 -15 9 -8 0 -12 -4
-9 -9z"/>
<path d="M3306 1308 c3 -5 10 -6 15 -3 13 9 11 12 -6 12 -8 0 -12 -4 -9 -9z"/>
<path d="M4240 1310 c-8 -5 -10 -10 -5 -10 6 0 17 5 25 10 8 5 11 10 5 10 -5
0 -17 -5 -25 -10z"/>
<path d="M5323 1305 c-3 -9 -3 -18 -1 -21 3 -3 8 4 11 16 6 23 -1 27 -10 5z"/>
<path d="M5410 1309 c0 -5 5 -7 10 -4 6 3 10 8 10 11 0 2 -4 4 -10 4 -5 0 -10
-5 -10 -11z"/>
<path d="M1909 1293 c-13 -16 -12 -17 4 -4 9 7 17 15 17 17 0 8 -8 3 -21 -13z"/>
<path d="M3191 1297 c-8 -10 -7 -14 2 -14 8 0 14 6 14 14 0 7 -1 13 -2 13 -2
0 -8 -6 -14 -13z"/>
<path d="M4831 1297 c-8 -10 -7 -14 2 -14 8 0 14 6 14 14 0 7 -1 13 -2 13 -2
0 -8 -6 -14 -13z"/>
<path d="M2015 1291 c-3 -5 -2 -12 3 -15 5 -3 9 1 9 9 0 17 -3 19 -12 6z"/>
<path d="M2496 1292 c-3 -5 1 -9 9 -9 8 0 12 4 9 9 -3 4 -7 8 -9 8 -2 0 -6 -4
-9 -8z"/>
<path d="M3110 1295 c0 -7 30 -13 34 -7 3 4 -4 9 -15 9 -10 1 -19 0 -19 -2z"/>
<path d="M3739 1283 c-11 -15 -11 -16 1 -6 10 9 18 9 34 1 19 -10 20 -10 7 5
-17 21 -25 21 -42 0z"/>
<path d="M4195 1290 c3 -5 8 -10 11 -10 2 0 4 5 4 10 0 6 -5 10 -11 10 -5 0
-7 -4 -4 -10z"/>
<path d="M4270 1296 c0 -2 7 -7 16 -10 8 -3 12 -2 9 4 -6 10 -25 14 -25 6z"/>
<path d="M4750 1291 c0 -6 4 -13 10 -16 6 -3 7 1 4 9 -7 18 -14 21 -14 7z"/>
<path d="M2588 1283 c6 -2 9 -10 6 -15 -4 -7 -2 -8 5 -4 13 9 5 26 -12 25 -9
0 -8 -2 1 -6z"/>
<path d="M2105 1270 c-3 -6 1 -7 9 -4 18 7 21 14 7 14 -6 0 -13 -4 -16 -10z"/>
<path d="M2640 1265 c-10 -12 -10 -18 0 -30 7 -8 17 -15 23 -15 6 0 2 6 -8 14
-16 12 -17 16 -6 30 7 9 11 16 8 16 -2 0 -10 -7 -17 -15z"/>
<path d="M3710 1275 c0 -5 5 -17 10 -25 5 -8 10 -10 10 -5 0 6 -5 17 -10 25
-5 8 -10 11 -10 5z"/>
<path d="M5345 1270 c-3 -6 1 -7 9 -4 18 7 21 14 7 14 -6 0 -13 -4 -16 -10z"/>
<path d="M2049 1253 c-13 -16 -12 -17 4 -4 16 13 21 21 13 21 -2 0 -10 -8 -17
-17z"/>
<path d="M3650 1266 c0 -2 8 -10 18 -17 15 -13 16 -12 3 4 -13 16 -21 21 -21
13z"/>
<path d="M3757 1259 c7 -7 15 -10 18 -7 3 3 -2 9 -12 12 -14 6 -15 5 -6 -5z"/>
<path d="M4215 1260 c-4 -6 -12 -7 -18 -4 -7 4 -8 3 -4 -1 13 -15 34 -14 34 1
0 17 -4 18 -12 4z"/>
<path d="M4259 1243 c-12 -16 -12 -17 2 -6 9 7 19 10 22 6 4 -3 7 -1 7 5 0 17
-16 15 -31 -5z"/>
<path d="M4810 1249 c0 -5 5 -7 10 -4 6 3 10 8 10 11 0 2 -4 4 -10 4 -5 0 -10
-5 -10 -11z"/>
<path d="M4876 1243 c-6 -14 -5 -15 5 -6 7 7 10 15 7 18 -3 3 -9 -2 -12 -12z"/>
<path d="M2475 1239 c-4 -6 -5 -12 -2 -15 2 -3 7 2 10 11 7 17 1 20 -8 4z"/>
<path d="M3295 1239 c-4 -6 -5 -12 -2 -15 2 -3 7 2 10 11 7 17 1 20 -8 4z"/>
<path d="M1916 1228 c3 -4 11 -5 19 -1 21 7 19 12 -4 10 -11 0 -18 -5 -15 -9z"/>
<path d="M2593 1223 c0 -9 4 -10 14 -2 7 6 13 12 13 14 0 1 -6 2 -13 2 -8 0
-14 -6 -14 -14z"/>
<path d="M3095 1230 c-3 -5 -1 -10 4 -10 6 0 11 5 11 10 0 6 -2 10 -4 10 -3 0
-8 -4 -11 -10z"/>
<path d="M3188 1228 c5 -5 16 -8 23 -6 8 3 3 7 -10 11 -17 4 -21 3 -13 -5z"/>
<path d="M3230 1236 c0 -2 7 -7 16 -10 8 -3 12 -2 9 4 -6 10 -25 14 -25 6z"/>
<path d="M4135 1230 c-3 -5 -1 -10 4 -10 6 0 11 5 11 10 0 6 -2 10 -4 10 -3 0
-8 -4 -11 -10z"/>
<path d="M4186 1230 c5 -8 9 -18 9 -22 0 -3 3 -9 7 -13 3 -4 5 0 4 9 -1 9 -8
22 -16 29 -10 10 -11 9 -4 -3z"/>
<path d="M4758 1233 c7 -3 16 -2 19 1 4 3 -2 6 -13 5 -11 0 -14 -3 -6 -6z"/>
<path d="M2490 1226 c0 -2 8 -10 18 -17 15 -13 16 -12 3 4 -13 16 -21 21 -21
13z"/>
<path d="M3676 1217 c3 -10 9 -15 12 -12 3 3 0 11 -7 18 -10 9 -11 8 -5 -6z"/>
<path d="M5345 1210 c10 -11 20 -20 23 -20 3 0 -3 9 -13 20 -10 11 -20 20 -23
20 -3 0 3 -9 13 -20z"/>
<path d="M1939 1218 c-5 -18 -6 -38 -1 -34 7 8 12 36 6 36 -2 0 -4 -1 -5 -2z"/>
<path d="M2073 1205 c0 -8 4 -12 9 -9 5 3 6 10 3 15 -9 13 -12 11 -12 -6z"/>
<path d="M2615 1210 c-3 -5 -1 -10 4 -10 6 0 11 5 11 10 0 6 -2 10 -4 10 -3 0
-8 -4 -11 -10z"/>
<path d="M4156 1212 c-3 -5 1 -9 9 -9 8 0 12 4 9 9 -3 4 -7 8 -9 8 -2 0 -6 -4
-9 -8z"/>
<path d="M4756 1203 c-6 -14 -5 -15 5 -6 7 7 10 15 7 18 -3 3 -9 -2 -12 -12z"/>
<path d="M5307 1209 c7 -7 15 -10 18 -7 3 3 -2 9 -12 12 -14 6 -15 5 -6 -5z"/>
<path d="M2025 1190 c-3 -6 1 -7 9 -4 18 7 21 14 7 14 -6 0 -13 -4 -16 -10z"/>
</g>
</svg>
